<?xml version="1.0" encoding="UTF-8"?>
<svg id="_レイヤー_2" data-name="レイヤー_2" xmlns="http://www.w3.org/2000/svg" viewBox="0 0 80.65 24.79">
  <defs>
    <style>
      .cls-1 {
        fill: #1b1b1b;
      }
    </style>
  </defs>
  <g id="_レイヤー_1-2" data-name="レイヤー_1">
    <g>
      <g>
        <path d="M10.22.85c-.06.1-.09.21-.09.33s-.04.23-.11.31c.01.13,0,.25-.04.37s-.05.24-.04.37c0,.05.01.1.04.14s.04.1.04.16c-.02.14-.03.26-.03.34s0,.17,0,.25c-.01.05-.03.09-.04.13s-.01.09,0,.13c.07.1.08.19.02.29s-.12.16-.18.18-.1.06-.12.12-.06.08-.12.08c-.04-.05-.09-.07-.16-.08s-.13-.02-.18-.04c.04-.16.02-.29-.04-.41.08-.1.13-.24.14-.43s-.01-.33-.07-.43c.05-.06.07-.13.05-.2s-.03-.14-.05-.2c.04-.17.07-.33.1-.5s.03-.33,0-.5c-.13-.08-.26-.13-.39-.15s-.27-.02-.41,0-.29.04-.43.07-.28.04-.41.04c-.19-.05-.36-.05-.51-.02s-.29.05-.42.05-.26-.01-.39-.04-.25-.04-.39-.04c.01.16.04.3.07.44s.06.28.07.42c0,.08,0,.15.03.21s.03.11.03.17c-.02.22-.02.38.02.5s.05.24.05.36c-.02.06-.03.14-.03.25s.03.18.06.22c0,.06-.01.1-.04.12s-.04.06-.03.12c.05.24.07.48.06.73s0,.49,0,.73c0,.14.01.26.04.34s.04.16.04.22v.25c0,.1-.01.18-.04.25-.04.14-.05.27-.04.37s.01.2,0,.3c-.01.14-.02.34-.02.58s0,.5,0,.75.03.5.06.72.08.39.14.49c-.02.2,0,.4.06.59s.11.38.13.57c.02.13.05.32.08.56s.05.42.06.56c.01.18.04.33.1.47s.1.26.13.39c.01.04.02.08.02.13s.02.08.05.11c.06.05.14.07.23.07s.19,0,.29-.02.19-.02.29-.03.18,0,.25,0c.04.04.08.07.14.1s.09.05.09.06c.02.1.01.18-.04.25s-.09.14-.13.22c-.19.02-.39.04-.6.05s-.41,0-.6-.02c-.18-.02-.32-.03-.41-.02s-.18-.01-.25-.07c-.18.06-.35.06-.5,0-.06-.02-.13-.04-.22-.04h-.22c-.2-.02-.4-.06-.6-.12s-.4-.09-.6-.12c-.06.06-.14.09-.24.08s-.19,0-.28,0c-.1.02-.2.05-.3.09s-.21.07-.3.09l-.47.05c-.04-.06-.08-.13-.14-.22s-.07-.17-.02-.25c.04-.06.11-.09.23-.1s.21-.04.27-.1h.29c.06-.05.11-.1.15-.17s.08-.13.12-.19c-.02-.19-.02-.38,0-.56s.05-.36.06-.56c0-.04,0-.07-.02-.1s-.02-.06-.02-.1c0-.1,0-.23.03-.4s.03-.31.04-.4.03-.19.05-.28.04-.18.04-.28c.01-.04,0-.07,0-.12s-.02-.07,0-.1c0-.11,0-.18.03-.21s.03-.06.03-.08c-.01-.23,0-.39.02-.48s.04-.19.05-.29c.02-.19.04-.38.04-.57s.02-.38.07-.57c.01-.07.03-.14.06-.21s.05-.14.06-.22c.02-.13.03-.27.02-.41s-.02-.28-.02-.41c0-.04,0-.07.02-.11s.02-.07.02-.09c0-.04,0-.07-.02-.11s-.02-.07-.02-.11c0-.05,0-.09.02-.13s.02-.09.02-.13c-.02-.14-.03-.24,0-.3s0-.11-.06-.17c.05-.07.07-.15.06-.23s0-.17,0-.27c.01-.05.02-.09.04-.13s.02-.08.04-.13c0-.08-.01-.15-.04-.21s-.01-.12.04-.21c-.02-.08-.03-.13-.02-.15s.02-.04.02-.08c-.01-.13-.01-.26,0-.39s.05-.24.13-.35c-.01-.04-.02-.09-.03-.17s0-.16,0-.26v-.47s-.04-.06-.04-.15v-.29c0-.1,0-.2,0-.29s0-.14,0-.15c-.05-.06-.12-.08-.21-.05s-.16.04-.22.04c-.04-.01-.07-.03-.1-.04s-.06-.03-.1-.03c-.17-.01-.34,0-.52.03s-.35.05-.52.06c-.17-.11-.36-.15-.56-.12s-.41.03-.6,0c-.07-.02-.14-.03-.22-.02s-.14,0-.22-.02c-.07.02-.13.11-.16.25s-.06.3-.07.48-.02.35-.02.51,0,.27.02.33.03.11.04.16.03.1.04.16c.05.17.06.36.04.57-.08.12-.19.17-.33.15s-.25-.08-.33-.19c-.01-.11-.01-.22,0-.33s.01-.22,0-.33c-.01-.13-.03-.25-.04-.37s-.04-.24-.06-.37c.02-.16.02-.25-.02-.27,0-.11.02-.21.06-.31s.05-.21.03-.31c-.01-.06-.04-.12-.08-.18s-.07-.12-.1-.18-.03-.11,0-.16.08-.09.19-.13c.02-.08.09-.15.19-.21s.18-.04.24.04c.27.02.54.06.8.1s.48.06.65.06c.06,0,.11,0,.16-.02s.1-.02.16-.02c.07.01.14.03.21.04s.13.03.19.03c.18.01.36,0,.54-.03s.36-.06.54-.08c.23-.01.41,0,.54.03s.26.01.39-.04c.1.06.21.08.35.05s.25-.04.35-.04h.22c.1.02.16.03.19,0s.06-.03.1-.03c.13-.01.26,0,.39.02s.25.04.39.04c.05,0,.09,0,.13-.02s.07-.02.11-.02c.05.01.09.02.13.03s.07,0,.11,0c.02,0,.1,0,.22-.02s.25-.02.38-.03.25-.01.37-.03.18-.02.19-.02c.11-.05.18-.07.22-.05s.09.02.13.02c.04,0,.07,0,.12-.02s.08-.02.12-.02c.06.01.12.04.18.08s.13.06.2.04c.12,0,.24-.01.37-.04s.21-.03.26,0c.07.02.11.07.13.14s.05.13.11.18ZM4.95,1.3c.02.1.02.2,0,.3s-.04.22-.04.32c0,.05.01.09.04.13s.03.07,0,.1c.01.1.01.19,0,.29s0,.19,0,.29c0,.05,0,.1.02.14s.02.1.02.14c-.01.08-.03.16-.06.23s-.04.14-.04.22v.23c-.01.08-.01.19,0,.31s0,.22-.04.28c.02.13.03.22,0,.25s-.03.08-.04.13c-.04.23-.05.46-.04.69s.01.47,0,.71c0,.06,0,.13-.02.2s-.02.14-.02.2c.01.05.03.09.04.13s.03.07.03.11c0,.05,0,.13-.03.23s-.04.22-.06.33-.05.22-.08.31-.06.16-.1.2c.04.1.04.2.03.31s-.04.22-.06.31c.02.06.03.11,0,.14s-.03.07-.03.09c.01.1.01.15,0,.16s0,.03,0,.05,0,.05.02.09.01.07,0,.11c0,.06,0,.13-.03.2s-.03.14-.03.2c.02.13.03.23.03.3s-.01.14-.03.2c-.01.04-.03.07-.04.11s-.03.08-.03.13c-.01.1-.01.19,0,.29s.01.19,0,.29c-.01.07-.03.14-.05.22s-.04.14-.05.22c0,.06,0,.11.03.15s.02.09,0,.15c0,.04,0,.07-.03.11s-.03.08-.03.13c-.02.07-.03.15-.02.22s.02.16.02.24c-.01.05-.03.09-.04.13s-.03.08-.03.14c0,.07.01.14.04.21s.03.14,0,.22c.1.01.18.01.25,0s.14,0,.2,0,.13,0,.2.03.16.05.25.1c.08-.01.16,0,.24.04s.16.05.26.04c.17.04.3.04.4.03s.2-.03.3-.03c.05-.17.04-.33,0-.48s-.09-.32-.12-.48c-.01-.05-.02-.12-.04-.21s-.03-.18-.04-.28-.03-.19-.04-.27-.02-.14-.02-.18c-.01-.11-.02-.17-.04-.2,0-.01,0-.05-.02-.13s-.03-.15-.04-.22-.03-.15-.04-.22-.02-.11-.02-.13c-.01-.17-.03-.26-.05-.27s-.03-.05-.02-.11c-.02-.11-.03-.18-.03-.22s0-.08,0-.12c-.02-.06-.04-.1-.04-.13s0-.06,0-.08v-.22c-.02-.11-.03-.17-.02-.2s.02-.05.02-.07c0-.11-.02-.2-.05-.29s-.05-.16-.05-.22c.02-.11.03-.18.02-.21s-.02-.06-.02-.08c0-.1,0-.18,0-.26s.01-.16.03-.24c.01-.07.01-.15,0-.22s-.02-.15-.04-.21c.06-.17.09-.31.08-.44s0-.27,0-.44c0-.2,0-.46,0-.78s-.02-.57-.08-.76c.02-.2.02-.36,0-.46s-.04-.2-.04-.3c0-.05,0-.09.03-.13s.03-.07.04-.11c-.02-.12-.03-.19-.02-.22s.02-.06.02-.08c0-.06,0-.12-.03-.19s-.03-.13-.04-.19c-.01-.1-.01-.19,0-.27s.01-.17,0-.25c0-.05,0-.09-.03-.13s-.03-.08-.04-.13c0-.02,0-.05.03-.09s.02-.07,0-.11c0-.04,0-.07-.03-.1s-.03-.06-.04-.1c-.02-.11-.04-.22-.05-.32s-.05-.21-.11-.3c-.05-.01-.11-.02-.2-.04s-.14.01-.16.07Z"/>
        <path d="M12.59,5.4c.12,0,.23,0,.33-.02s.2,0,.29.02.19.06.28.12.19.07.28.04c.05.01.08.03.11.06s.05.06.09.08c.05-.02.08-.03.11-.03s.07.01.11.03c.12.07.21.1.28.09s.12.01.14.07c.05-.02.13-.02.26.02s.22.06.26.09.09.06.12.1.08.05.14.03c.04.09.1.16.19.2s.17.1.23.17c.14.18.26.31.35.41s.14.16.14.17c0,.08.02.14.05.18s.06.06.07.09c.05.13.08.2.1.21s.03.03.04.05c.02.06.03.12.03.18s.03.12.1.17c-.02.09-.01.16.03.19s.04.11,0,.21c.02.02.04.05.06.09s.04.06.08.07c-.02.09-.02.19,0,.29s.04.2.04.31c0,.18-.02.41-.06.7s-.08.53-.13.7c-.04.02-.06.05-.09.08s-.06.06-.11.08c-.02.13-.07.24-.13.34s-.11.21-.13.34c-.09.06-.17.12-.24.19s-.13.15-.18.23-.12.16-.19.22-.13.14-.19.22c-.07.07-.11.11-.12.11s-.03,0-.05.02c-.11.11-.16.18-.18.21s-.03.06-.05.09c-.11.06-.2.13-.29.2s-.2.13-.33.15c-.06.06-.13.1-.21.13s-.15.07-.21.13c-.14.12-.25.18-.34.18s-.16.04-.22.12c-.09-.02-.16-.02-.2.02s-.1.06-.18.09c-.22-.04-.45-.04-.67,0-.06,0-.11.01-.16.04s-.1.03-.16.02c-.13,0-.25-.03-.36-.08s-.23-.07-.36-.04c-.12-.09-.24-.17-.38-.22s-.27-.09-.41-.11c-.07-.12-.2-.22-.39-.3-.02-.04-.08-.09-.17-.18s-.18-.17-.29-.27-.21-.19-.3-.26-.16-.12-.19-.13c-.05-.08-.09-.16-.13-.23s-.1-.13-.17-.19l-.07-.25c-.02-.08-.06-.15-.12-.21.02-.09.02-.18-.02-.25s-.06-.15-.09-.25c-.02-.11-.03-.21-.02-.32s0-.21-.05-.32c.06-.05.08-.11.06-.18s-.01-.12,0-.14c.06-.14.08-.28.06-.41s-.01-.27,0-.41c0-.04,0-.07.03-.11s.03-.08.04-.12.01-.09,0-.13,0-.08.03-.13c.09-.14.16-.25.18-.32s.05-.13.06-.19c.01-.12.03-.17.05-.17s.04,0,.05,0c.15-.19.26-.32.33-.4s.13-.16.2-.25c.09-.12.23-.27.41-.45s.34-.32.47-.41.21-.16.25-.19.08-.08.11-.12c.11.02.18,0,.22-.06s.11-.09.2-.08c.08-.04.15-.09.19-.16.11-.01.22-.04.35-.09.12-.05.22-.06.32-.03s.21,0,.35-.11ZM10.43,7.27s-.07.06-.11.07-.08.04-.11.07c-.01.06-.04.1-.1.11s-.07.07-.04.15c-.01-.01-.05.01-.12.07s-.12.1-.14.12c-.04.18-.09.31-.16.4s-.12.17-.16.25c-.05.09-.09.25-.13.47s-.06.38-.06.48c0,.04,0,.07.02.11s.01.08,0,.11c0,.08-.02.16-.05.24s-.05.18-.04.33c0,.02.01.06.04.11s.04.09.04.11c-.02.08-.03.13,0,.16s.03.05.03.07c.01.04.01.08,0,.12s0,.08,0,.11c.02.08.07.16.14.22s.11.14.11.24c.05.06.09.11.13.17s.07.11.1.18c.09.06.17.13.22.21s.15.12.29.12c.02-.12.01-.2-.04-.24s-.09-.1-.12-.18c.01-.08,0-.16-.04-.22s-.06-.13-.09-.2c-.02-.09-.04-.18-.04-.26s-.02-.16-.07-.23c.06-.12.08-.23.08-.34s0-.23,0-.34c.06-.4.11-.72.15-.96s.08-.46.11-.67.05-.32.05-.34c.01-.04.03-.07.05-.1s.04-.06.05-.1c.05-.13.08-.26.11-.4s.05-.27.09-.4c-.02.01-.06.03-.1.04s-.06.06-.06.11ZM13.21,13c.06-.08.16-.11.3-.09.04-.02.06-.06.09-.1s.05-.07.07-.08c.13-.06.22-.09.26-.09.13-.06.25-.13.38-.2s.23-.16.31-.25c.05,0,.08-.01.11-.04s.05-.05.07-.09.06-.08.11-.12.12-.09.21-.12c.11-.13.21-.25.31-.38s.21-.25.33-.38c.09-.13.16-.27.21-.42s.12-.29.21-.42c.05-.08.09-.17.12-.26s.05-.16.04-.18-.01-.09,0-.18c0-.13,0-.21.03-.24s.03-.06.04-.08c.01-.19-.01-.33-.07-.43s-.09-.18-.11-.25c-.02-.13-.05-.27-.07-.43s-.08-.27-.16-.33c.01-.06,0-.11-.02-.15s-.04-.09-.04-.15c-.05-.07-.09-.12-.14-.16s-.06-.1-.05-.19c-.11-.11-.18-.17-.21-.18s-.05-.06-.04-.11c-.06-.02-.13-.07-.23-.13s-.19-.13-.28-.18-.19-.11-.28-.14-.18-.04-.25,0c-.06-.06-.14-.1-.25-.11s-.2-.04-.28-.06c-.08-.04-.14-.04-.18-.03s-.08.02-.11,0c-.07-.02-.13-.06-.18-.11s-.12-.08-.2-.11c-.02,0-.06,0-.11.02s-.09.02-.12.02c-.02,0-.06,0-.12,0l-.18-.02c-.06,0-.11,0-.16,0s-.07.03-.07.06c-.09-.05-.19-.05-.3-.02s-.21.05-.32.05c-.02.02-.04.06-.04.12v.14c-.11.05-.18.12-.24.21s-.13.18-.22.25c.01.06,0,.1-.02.12s-.03.06-.02.11c-.07.02-.13.08-.17.16s-.08.18-.11.28-.05.21-.07.31-.03.18-.04.24c-.09.19-.13.32-.12.4s0,.15-.02.22c-.05.14-.07.23-.06.26s0,.07,0,.11c-.04.11-.05.17-.04.19l.04.07c-.08.19-.13.39-.16.62,0,.06,0,.12.03.18s.02.13,0,.18c0,.04,0,.07-.03.1s-.03.06-.04.1c-.02.2-.01.37.04.52s.1.31.16.48c.09.21.16.4.21.56.06.07.09.13.09.18v.11c.02.13.05.22.08.26s.04.1.03.16c.07.02.13.05.19.08s.12.06.19.08c.09.02.2.04.31.04s.21.01.31.03c.06.01.11.03.14.04s.08.03.12.03c.12,0,.25-.02.4-.05s.28-.04.4-.02Z"/>
        <path d="M19.49,6.39c-.02.07-.04.14-.05.2s-.05.12-.11.17c.05.07.04.16-.02.27s-.06.21,0,.31c-.05.06-.06.13-.04.21s.02.16,0,.25c0,.04,0,.07-.03.11s-.03.08-.04.12c0,.04,0,.08,0,.15s0,.13,0,.21v.21c0,.06,0,.11.02.15-.06.02-.08.06-.08.12s-.01.1-.06.12c.06.07.08.17.05.3s-.03.24-.02.33c0,.04,0,.07.02.1s.02.06.02.1c0,.06,0,.11-.02.17s0,.11.02.17.03.12.03.19,0,.13,0,.19c.02.19.07.37.13.54s.11.35.13.54c0,.06.01.09.04.1s.06.03.08.08c.02.06.04.11.04.17s.01.1.04.15c.04.08.09.15.16.19s.12.12.14.21c.09,0,.17.05.23.16.06-.04.1-.03.12,0s.06.07.11.1c.06-.04.12-.04.18,0s.12.05.18.05c.06.01.12.01.18,0s.13-.02.18-.02c.06.05.11.05.17,0s.1-.04.15.02c.09-.06.19-.1.28-.11s.16-.03.21-.04c.06-.01.15-.04.27-.09s.2-.08.24-.11c.13-.04.2-.06.21-.07s.03-.02.05-.04c.13-.07.21-.1.24-.1s.06,0,.08-.03c.09-.08.16-.15.21-.19s.12-.11.21-.19c.08-.09.13-.17.15-.22s.06-.08.11-.08c-.01-.07,0-.12.06-.14s.08-.06.08-.12c.06,0,.09-.03.09-.08s.02-.09.07-.11c-.04-.15-.05-.3-.04-.46s-.01-.3-.06-.46c-.06-.21-.08-.43-.05-.66s.02-.45,0-.66c-.01-.06-.02-.11-.04-.15s-.02-.09-.04-.15c-.01-.13-.02-.2-.04-.2s-.02-.02-.04-.04c.02-.15.02-.25,0-.31s-.04-.11-.04-.17c.01-.13.03-.25.06-.38s.02-.25-.03-.4c-.05-.02-.09-.02-.12,0s-.08.04-.14.03c-.04-.01-.08-.01-.13,0s-.08.04-.1.1c-.05-.04-.11-.04-.19-.02s-.16.04-.24.04-.14-.02-.19-.07-.07-.18-.06-.38l.19-.11c.16-.02.29-.05.39-.08s.19-.06.28-.08c.22-.05.45-.07.68-.07s.46-.01.69-.04c.04,0,.07,0,.11-.02s.08-.02.12-.04h.39c.12,0,.21-.01.29-.04s.13-.04.17-.04c.08-.01.16-.01.24,0s.15,0,.22,0c.12.01.23.02.33.04s.21-.01.3-.07c.06.02.1.06.13.11s.08.08.17.08v.33c-.04.06-.09.09-.17.11s-.12.05-.13.12c-.13-.07-.2-.1-.21-.09s-.03.02-.05.02c-.13-.04-.21-.05-.23-.05-.07-.01-.14,0-.2.02s-.13.02-.18,0c-.02.09-.04.18-.04.26v.26c-.02.08-.02.14,0,.18s.04.09.05.15c.01.02.02.09.04.2s.03.23.04.35.03.24.04.35.02.18.02.2c-.02.15-.01.24.04.26-.06.12-.08.19-.08.23s0,.07,0,.11c0,.05,0,.09-.02.13s-.02.08-.02.13c.05.11.06.17.05.18s-.02.04-.02.06c0,.06,0,.11.03.14s.03.08.04.12c0,.05,0,.09-.02.12s-.02.07-.02.11c0,.09.01.19.04.28s.04.19.04.28c-.02.07-.03.13,0,.18s.03.09.03.11c.01.05.01.1,0,.15s.01.09.06.11c-.05.02-.06.08-.03.16s.01.13-.04.16c.05.06.07.12.08.18s0,.13,0,.18c.06.09.09.19.1.29s.04.2.1.29c.12.02.23.04.35.04s.23,0,.33-.04c.06-.02.16-.06.32-.11s.26-.06.32-.05c.06.02.1.06.13.11s.07.1.13.15c-.08.09-.16.21-.23.33-.16.09-.34.14-.54.13s-.37.04-.52.15c-.09-.04-.2-.04-.33,0s-.23.06-.33.07-.2.01-.33,0-.23.03-.31.1c-.04.01-.06,0-.09-.02s-.06-.03-.11-.02c-.05,0-.08.01-.1.04s-.05.04-.1.05c-.04-.04-.08-.05-.15-.04s-.13.03-.2.06-.14.05-.2.07-.12.02-.17,0c-.02.01-.05,0-.07-.04s-.05-.08-.08-.12-.06-.09-.08-.13-.04-.07-.04-.1c.02-.12.03-.18.02-.2s-.02-.04-.02-.06c0-.07,0-.13.02-.18s0-.11-.02-.18c-.05-.11-.06-.17-.04-.2s.02-.06,0-.1c-.05-.14-.06-.24-.04-.29s0-.11-.04-.17c-.09.11-.16.16-.2.16s-.05.02-.03.07c-.18.13-.31.21-.4.25s-.17.1-.23.19c-.04,0-.09.01-.17.04s-.16.06-.24.1-.16.07-.24.11-.12.07-.13.1c-.16,0-.27.02-.33.06s-.14.07-.27.1c-.14.01-.21.03-.22.04s-.02.03-.04.03c-.18-.02-.3-.02-.36,0s-.13.05-.2.06c-.06,0-.11,0-.15-.02s-.09-.02-.15-.02c-.01.04-.07.04-.18,0l-.21-.07c-.11-.01-.17-.02-.19-.04s-.05-.01-.07,0c-.04-.11-.12-.16-.26-.16-.02-.06-.06-.1-.1-.13s-.08-.06-.13-.1c-.09-.05-.14-.08-.14-.09s-.04-.04-.12-.07c0-.09-.02-.16-.07-.19s-.1-.08-.16-.14c-.06-.27-.16-.51-.32-.72-.02-.06-.04-.13-.04-.22s-.04-.16-.1-.2c.01-.07.02-.14.02-.21s-.03-.13-.09-.19c.06-.07.07-.11.04-.12s-.05-.05-.06-.11c-.01-.09-.02-.18-.04-.27s-.02-.18-.03-.29,0-.21,0-.3v-.21s0-.07.02-.1.02-.06.02-.1c0-.07,0-.13-.02-.18s0-.11.02-.18c.02-.06.03-.18.02-.35s0-.31.02-.4c.01-.08.04-.16.1-.25s.04-.17-.03-.26c.06-.12.1-.28.11-.48s0-.37-.03-.5c-.27-.02-.54-.05-.8-.09s-.53-.03-.8.02c-.04-.06-.07-.14-.11-.24s-.04-.18,0-.24c0-.02.03-.05.1-.09s.11-.05.13-.05c.02-.01.06,0,.12.02s.1.04.12.04c.09.02.18.03.26.02s.17-.02.26-.02c.07.01.1.03.1.04s.03.02.11,0l.11-.04s.07-.01.11,0c.04,0,.07,0,.11.02l.11.04c.09.01.2,0,.31-.03s.2-.03.25,0c.07.02.13.06.17.1s.09.08.15.11ZM24.35,7.04c-.02.15-.03.31,0,.47s0,.31-.06.45c.06.02.08.06.05.12s-.03.12-.02.18c.06.12.08.19.07.23s-.02.08-.02.12c.01.16.05.33.11.49-.08.05-.11.13-.07.25s.05.21.04.27c-.02.08-.02.16,0,.23s.05.13.06.19c-.02.13-.02.23,0,.3.02.15.04.3.06.46s.02.3,0,.46c.07.07.1.15.08.25s-.03.19-.03.28c0,.07,0,.14.03.21s.03.14.04.21c-.02,0-.03.01-.03.04s.02.06.04.1.03.08.04.12,0,.09,0,.12c.09.11.13.19.12.26s.01.16.07.26c.14.06.29.07.44.04s.28-.06.39-.09c-.02-.05-.01-.09.04-.12s.04-.06-.02-.09c-.01-.06-.02-.09-.04-.11s0-.05.02-.12c-.05-.02-.07-.06-.07-.1s-.02-.07-.07-.1c.04-.01.04-.05.03-.11s0-.1.04-.11c-.06-.09-.08-.2-.05-.33s.02-.24-.02-.36-.04-.24-.03-.37.01-.26,0-.39c0-.06,0-.11-.03-.15s-.03-.09-.03-.15c-.01-.05,0-.09,0-.14s.02-.09,0-.14v-.4c0-.13-.02-.27-.05-.4.06-.06.08-.11.05-.17s-.03-.11-.02-.17c0-.06,0-.11.03-.16s.03-.1.03-.16c.01-.15,0-.3-.05-.43s-.07-.28-.07-.43c-.05-.2-.07-.37-.07-.5s-.01-.27-.04-.41h-.51c-.2,0-.36.02-.49.07Z"/>
        <path d="M34.87,5.6c.02.06.05.11.07.16s.03.11.02.18c0,.06-.01.11-.04.15s-.04.09-.05.15c-.02.09-.04.22-.05.38s-.02.29-.02.4c.02.14.03.23.02.28s-.02.1-.02.16c.01.07.02.14.03.21s.02.14.04.21c.04.08.05.13.04.16s-.02.05-.03.08,0,.05,0,.07.01.02.04,0l-.23.3c-.06.01-.11,0-.17-.02s-.11-.03-.17-.02c-.11-.11-.18-.17-.21-.18s-.08-.03-.12-.04c0-.06.01-.1.04-.13s.02-.07,0-.13c-.02-.09-.07-.17-.13-.24s-.11-.15-.13-.25c-.23-.18-.46-.37-.69-.58-.07.01-.14,0-.21-.04s-.14-.06-.21-.07c-.04,0-.07,0-.1.02s-.06.02-.1.02c-.14,0-.23,0-.26-.03s-.07-.03-.11-.04c-.04,0-.07,0-.1.02s-.06.02-.1.02c-.14-.01-.22-.01-.25,0l-.07.04c-.21.07-.35.11-.43.11s-.17.03-.27.08c-.04.02-.07.04-.11.04s-.08.03-.11.06c-.06.07-.11.13-.16.18s-.08.09-.11.13-.06.07-.08.08c.01.06-.01.15-.08.28s-.11.21-.15.25c.02.06.02.11,0,.16s-.03.08,0,.11c-.06.18-.09.34-.1.48s0,.3,0,.46,0,.3.02.44.04.22.09.25c-.06.08-.08.21-.05.39s.05.31.09.4c.05.11.07.17.06.2s0,.06,0,.1l.07.18.07.18c.06.16.11.34.16.53s.12.35.23.49c-.01.06,0,.1,0,.13s.04.07.06.13c.14.04.25.05.33.04s.16,0,.25.04c.14-.05.24-.06.29-.04s.1.02.15,0c.02,0,.05,0,.09-.02s.07-.01.11,0c.04,0,.07,0,.1.02s.06.02.1.04c.06.02.09.02.11,0s.04-.04.09-.04c.09-.01.16,0,.18,0s.09,0,.18-.08c.13.01.22,0,.28-.03s.13-.04.21-.04c.18-.09.3-.17.39-.22s.15-.11.19-.17c.13-.07.22-.11.26-.13s.09-.04.14-.06l.22-.22c.08-.08.16-.15.24-.22.06.02.12.04.18.05s.12.03.18.05c.01.06.03.11.04.15s.03.09.03.15c-.08.09-.17.17-.27.24s-.18.15-.25.25c-.06,0-.1.02-.13.06s-.06.07-.1.1c-.06.05-.13.08-.21.1s-.13.07-.16.17c-.08-.02-.14-.02-.18,0s-.08.06-.14.08c-.08.01-.15.04-.19.08s-.09.07-.14.1c-.11.02-.22.04-.33.04s-.23.02-.35.04c-.06.02-.12.05-.18.08s-.12.05-.18.06c-.06,0-.11-.01-.15-.04s-.09-.04-.15-.04c-.13,0-.2,0-.2.02s-.01.02-.03.02c-.07-.02-.14-.03-.2-.02s-.12.02-.17.02c-.13-.02-.21-.03-.24-.02s-.06.02-.08.02c-.08,0-.16-.02-.22-.05s-.13-.05-.2-.05c-.04,0-.07,0-.11.03s-.07.02-.11,0c-.15-.02-.3-.07-.44-.15s-.28-.14-.4-.2c-.04-.04-.06-.07-.08-.11s-.04-.06-.08-.09c-.06-.05-.11-.09-.16-.14s-.08-.1-.11-.16c-.07-.02-.13-.06-.18-.11s-.11-.08-.19-.09c-.06-.16-.16-.3-.3-.4-.02-.18-.07-.35-.13-.52s-.11-.34-.15-.52c-.02-.06-.05-.1-.08-.12s-.04-.08-.03-.18c-.07-.16-.1-.27-.1-.31s0-.08,0-.13c-.01-.14-.04-.28-.07-.43s-.04-.3-.02-.45c.01-.07.04-.14.08-.2s.05-.14.03-.22c.06-.06.1-.13.13-.2s.06-.15.1-.22c.05-.01.08-.04.09-.08s.05-.06.11-.04c-.01-.07.01-.15.07-.25s.13-.19.21-.29.17-.19.25-.26.16-.13.22-.17c.12-.06.19-.11.21-.14s.05-.06.07-.09c.13-.09.28-.17.44-.22s.3-.13.42-.24h.19c.09-.06.2-.1.31-.12s.21-.07.31-.14c.11.04.21.03.31-.03s.2-.08.29-.1c.02,0,.06,0,.11.02s.11.02.17.03.11.01.15.02.06,0,.06-.03c.05,0,.09,0,.14.02s.1.02.16.02c.08,0,.16,0,.24-.03s.16,0,.24.03c.06.02.11.05.17.08s.11.03.17,0c0,.01.05.06.16.16s.16.14.18.14c.11.06.17.11.19.16s.09.08.19.11c.11-.07.16-.19.18-.37s.04-.33.09-.46c.01-.04,0-.07,0-.1s-.03-.06-.03-.1c.05-.04.08-.08.11-.12s.05-.09.09-.14c.06,0,.12,0,.18.03s.13.02.18,0ZM29.34,7.86c-.06.09-.12.18-.19.25s-.12.17-.14.29c-.04.02-.06.05-.09.08s-.06.05-.11.06c-.08.14-.12.23-.11.27s0,.08,0,.11c-.02.04-.04.07-.06.1s-.03.06-.04.1c-.01.06-.01.11,0,.15s0,.09,0,.15c-.01.18,0,.29.04.35s.06.13.07.21c0,.16.01.28.04.35s.06.13.08.19c.02.04.04.06.05.09s.03.05.05.09c.04.14.05.26.05.35s.02.18.07.26c.08.09.12.15.11.16s-.01.02,0,.04c.07.02.1.06.1.11s0,.08.03.11.05.04.09.04.06.02.09.04c.02.07.05.11.09.11s.07.01.11.04c.01.06.04.09.09.11s.08.03.11.05c0-.09-.04-.17-.11-.23.04-.07.04-.14,0-.21s-.06-.14-.11-.22-.08-.16-.11-.25-.05-.19-.05-.3c-.01-.02-.03-.05-.05-.09s-.04-.07-.04-.11c-.01-.07,0-.14,0-.22s.01-.14,0-.2-.03-.1-.02-.13.02-.07.02-.13-.01-.11-.04-.15-.04-.09-.04-.15c0-.04,0-.07.02-.1s.02-.06.02-.1c0-.05,0-.09-.03-.12s-.03-.07-.04-.11c-.01-.32,0-.58.06-.79s.09-.43.11-.65h-.11Z"/>
        <path d="M38.98.69c.05.18.07.36.08.55s0,.38-.03.55c0,.08,0,.16-.02.24s0,.15.05.22c-.05.19-.06.37-.04.55s.02.37,0,.57c-.01.13-.01.2,0,.22s0,.04,0,.06c0,.04,0,.07-.03.11s-.03.07-.03.11c-.02.12-.03.22-.03.32s.01.19.03.29.01.21,0,.33-.03.25-.08.4c.04.05.06.11.06.19s0,.15-.03.19c.08.11.11.23.08.37s-.04.27-.04.39c-.01.07,0,.14,0,.21s.03.14.03.21c-.01.06-.03.12-.04.18s-.03.13-.03.18c0,.08.01.16.04.24s.02.16,0,.25c.09-.02.16-.07.2-.15s.09-.15.15-.22c.02-.02.05-.04.09-.06s.06-.04.09-.06c.01-.05.04-.11.09-.18.07-.08.12-.12.14-.11s.04,0,.05-.02c.07-.11.14-.16.2-.16s.1-.05.1-.14c.02,0,.07-.01.13-.04s.13-.06.2-.1.13-.08.18-.11.08-.06.08-.07c.09,0,.18-.02.26-.07l.25-.14s.06.03.11-.02.09-.07.11-.07c.21-.04.37-.06.48-.08s.23-.03.34-.03c.13,0,.25.01.38.04s.25.02.38,0c.02.06.07.1.14.11s.13.04.18.08c.04.02.06.05.09.09s.05.06.09.09c.05.02.1.05.15.08s.1.07.13.11c.02.02.04.06.04.1s.01.07.04.1c.07.02.1.06.09.1s0,.07.02.1l.12.23s.04.09.04.13.02.07.07.1c0,.14.02.28.07.41s.08.27.09.41c.01.06.01.11,0,.16s0,.1,0,.16c.01.06.03.11.04.17s.03.11.03.17c0,.04,0,.07-.02.1s-.02.06-.02.1c.02.18.03.3.02.37s0,.13.05.19c-.02.07-.02.13,0,.17s.04.08.04.13-.01.09-.04.12-.04.08-.04.14c.01.2,0,.34-.04.42s-.02.17.04.26c-.04-.01-.06,0-.08.06s-.03.11-.03.18v.31c-.08.09-.12.23-.12.4s-.01.31-.04.43c-.01.06-.03.11-.06.15s-.04.09-.04.15c.02.08.03.14,0,.18s-.03.07-.03.1c-.01.08-.01.16,0,.23.13.04.19.06.19.07.04.01.07.03.11.06s.08.04.11.04c.06,0,.11,0,.14,0s.07-.01.1-.02.06,0,.11,0l.18.03c.06.01.11,0,.16-.04s.1-.06.16-.06.1.04.13.13.07.14.13.17c-.02.05-.02.12,0,.23-.14.09-.23.16-.26.19-.21-.02-.44-.03-.68,0s-.46,0-.66-.08c-.05.05-.11.06-.18.04s-.13-.03-.19-.03c-.13.01-.25.02-.38.03s-.25.02-.38.04c-.02.01-.05.02-.09.04l-.11.04s-.08,0-.16.02-.17.02-.26.03-.22.01-.39.03c-.11-.02-.17-.07-.2-.15s-.06-.16-.1-.25c.02-.04.05-.06.07-.09s.04-.06.05-.11c.19-.02.4-.03.65-.03s.45-.04.6-.13c.06.01.12.02.18.03s.13,0,.18-.03c.06-.18.08-.3.08-.36s.02-.12.08-.17c-.05-.07-.06-.14-.03-.22s.07-.14.13-.2c.02-.27.05-.54.07-.83s.08-.55.18-.81c-.02-.15-.02-.3.02-.44s.04-.28.02-.42c0-.06-.01-.11-.04-.17s-.03-.11,0-.18c-.01-.18-.01-.36,0-.54s0-.31-.02-.37c-.01-.15-.03-.26-.06-.32s-.04-.1-.04-.12c.01-.09,0-.18-.02-.27s-.05-.18-.09-.27c-.06-.16-.08-.26-.07-.28s-.02-.09-.09-.21c-.06-.11-.15-.18-.27-.24s-.23-.13-.31-.22c-.04-.01-.1-.02-.19-.04s-.19-.02-.28-.02-.18,0-.26.02-.12.04-.12.09c-.16-.01-.32,0-.47.04s-.24.08-.29.14c-.15.02-.26.06-.33.11s-.14.1-.21.15c-.18.08-.29.15-.35.2s-.12.1-.18.15c-.2.13-.33.25-.4.36s-.16.21-.28.29c0,.12-.03.21-.08.26s-.09.13-.11.23c-.05.02-.09.04-.12.05s-.07.03-.11.05c-.02.09,0,.16.09.19-.01.13-.01.25,0,.38s.02.25.04.38c-.09.16-.12.29-.07.37s.07.18.07.28c0,.06,0,.1-.03.12s0,.08.03.18c-.09.12-.12.24-.09.38s.04.24.02.31c-.05.15-.06.26-.04.32s0,.12-.05.18c.02.08.04.14.04.17s0,.05,0,.06,0,.02,0,.04v.09s0,.09.03.12.03.07.03.11c.01.16.01.32,0,.47.02.02.05.03.07.03s.05-.02.07-.04.04-.03.06-.04.04,0,.06.04c.04.02.08.02.12,0s.09-.04.14-.04c.09-.01.19,0,.28.04s.19.04.28.02c-.04.06-.05.13-.04.2s.02.14.04.2c-.06,0-.11.03-.15.1s-.09.11-.15.13c-.05.02-.1.03-.16.03s-.11-.03-.14-.06-.06-.03-.09.03-.05.08-.07.1c-.08-.06-.13-.08-.16-.06s-.07.02-.14,0c-.14-.02-.28-.07-.4-.13s-.26-.09-.4-.08c-.06.01-.12,0-.18,0s-.13-.02-.18,0c-.13,0-.25.01-.38.04s-.25.06-.38.08c-.05.01-.1.01-.15,0s-.09.01-.11.07c-.23-.04-.46-.06-.69-.06s-.45.04-.69.13c-.05-.05-.1-.07-.17-.08s-.11-.04-.15-.1c-.04-.14-.03-.24.03-.29s.13-.12.22-.2c.12.04.21.04.28,0s.15-.05.25-.05c.07-.01.13,0,.19.02s.13.02.21,0c.06-.05.08-.11.08-.19s0-.16,0-.23.03-.14.05-.21.04-.14.05-.21c0-.06,0-.11-.02-.17s-.02-.11-.02-.17c0-.09,0-.18.03-.27s0-.18-.06-.27c.07-.09.1-.19.09-.28s0-.19.02-.28c0-.04,0-.07.02-.1s.02-.06.04-.1c.02-.06.03-.11.03-.17s0-.11,0-.17l.04-.11s.02-.08.04-.12c0-.04,0-.07,0-.11s0-.08,0-.11c.05-.14.06-.23.05-.26s-.02-.06-.02-.09c0-.01,0-.06.02-.16s.02-.19.04-.3.02-.2.03-.29,0-.14,0-.17c-.01-.2,0-.34,0-.42s.04-.16.06-.25c.01-.12.03-.2.05-.24s.04-.09.05-.15c.02-.16.03-.33.03-.49s0-.33.03-.49c.01-.06.03-.11.05-.17s.04-.11.05-.17,0-.12,0-.18-.03-.12-.03-.18c0-.07,0-.14.03-.21s.03-.14.04-.21c0-.05,0-.09,0-.13s0-.08,0-.13c.02-.22.04-.45.06-.68s.04-.45.06-.68c.02-.11.03-.16.02-.18s-.02-.03-.02-.05.01-.06.04-.1.04-.08.04-.13c.01-.07.01-.14,0-.21s-.01-.14,0-.21c.01-.06.03-.12.05-.18s.04-.12.05-.18c.01-.14.02-.28.02-.42s.02-.28.07-.4c-.18.02-.35.03-.54.02s-.36,0-.54.02c-.06,0-.11,0-.16.03s-.09.02-.14,0c-.08-.02-.14-.07-.18-.13s-.06-.13-.09-.2c.04-.02.06-.05.07-.08s.04-.06.07-.08c.13-.07.21-.1.25-.08s.05,0,.04-.06c.06.05.13.06.2.04s.14-.02.2,0c.04.01.07.03.11.04s.08.03.12.03c.07,0,.15-.01.23-.04s.16-.06.23-.08c.09.01.25.01.47,0s.38-.02.47-.04c.02-.01.05-.04.07-.07s.05-.06.09-.07c.05.02.11.04.18.04s.12.02.16.07ZM38.12,2.59c-.06.06-.09.12-.09.19.02.04.03.08.03.14s0,.11.03.16c-.01.02-.02.06-.04.11s-.02.11-.03.18-.01.13-.02.18,0,.09,0,.11c-.01.11-.03.23-.05.36s-.04.28-.06.45-.03.32-.04.47,0,.24,0,.27c0,.05,0,.08.03.11s.03.07.03.11c-.06.06-.08.1-.06.12s.03.06.03.11c-.02.14-.05.25-.08.33s-.04.16-.04.23c.01.25,0,.44-.04.57s-.04.27,0,.4c-.04.06-.07.12-.1.18s-.05.13-.06.18c-.04.13-.04.26-.03.4s.01.27,0,.4-.03.26-.03.4,0,.28-.04.4c-.02.07-.04.14-.05.21l-.04.21c-.01.06-.02.11-.03.15s0,.09.04.15c-.02.02-.04.05-.06.07s-.03.06-.03.11c0,.08,0,.16,0,.23s-.01.15-.03.23c-.01.05-.03.09-.04.12s-.03.08-.03.14c0,.22,0,.34.02.36s.03.08.05.18c-.09.15-.13.26-.1.33s.04.15.03.23c0,.06,0,.11-.03.15s-.04.09-.06.15c.06.06.08.13.05.21s-.02.15,0,.21c.05.04.09.04.14,0s.1-.05.16-.04c.16.02.32.01.47-.03s.31-.04.47,0c.05-.06.06-.11.04-.17s-.04-.11-.04-.17c.05-.16.06-.32.03-.47s-.04-.28-.03-.41c.01-.06.03-.11.05-.15s.04-.09.05-.15c-.02-.11-.03-.17-.02-.2s.02-.06.02-.08c0-.13,0-.26,0-.4s0-.27,0-.4c0-.07,0-.14.03-.22s.02-.14,0-.2v-.28c0-.06,0-.12,0-.19s-.01-.13-.02-.19,0-.1,0-.12c-.07-.27-.1-.49-.08-.65s0-.33-.06-.49c.02-.15.03-.3.03-.43s0-.28,0-.42.01-.29.03-.43.03-.24.05-.3c-.06-.13-.08-.27-.05-.41s.03-.29.02-.43c0-.04,0-.07-.02-.1s-.02-.06-.02-.1c0-.21.01-.42.04-.64s.04-.43.03-.64c.01-.12,0-.19,0-.22s-.03-.06-.03-.1c0-.06.01-.11.04-.15s.04-.09.04-.15c0-.04,0-.07-.02-.11s-.02-.06-.02-.09c0-.05,0-.09.03-.12s.03-.07.04-.11c0-.04,0-.07-.02-.11s-.02-.07-.02-.11c-.02-.35-.02-.71,0-1.07-.06.01-.11,0-.14,0s-.06-.01-.09,0c-.07.06-.1.13-.1.23s0,.18,0,.26c0,.04,0,.07-.03.11s-.03.08-.04.12c0,.04,0,.07.02.1s.02.06.02.1c0,.05,0,.1-.03.16s0,.11.03.14Z"/>
        <path d="M53.17.03c.09.06.17.11.25.17s.12.14.14.24l.15.14s.07.03.11.03.08,0,.11.04c.07.06.11.11.13.16s.04.09.06.11c.05.02.08.05.09.09s.04.06.06.09c.02.03.03.07.03.12s.01.09.03.14c.02.06.05.11.09.14s.07.08.1.13c.02.03.04.07.04.1s.01.06.03.09c.02.09.07.18.14.27s.13.18.18.27c.02.09.04.15.05.19.07.11.11.2.14.27s.06.13.12.17c0,.14.03.24.09.32s.11.17.13.3c.02.06.05.09.09.11s.06.05.09.11c-.02.07-.01.12.03.16s.07.09.09.14.04.12.05.18.03.12.05.18c.03.1.08.19.13.27s.07.18.06.29c.09.17.17.33.23.49s.12.32.18.5c.05.13.09.25.14.38s.1.26.15.38c.06.11.12.22.19.32s.13.22.19.34c.06.1.11.22.17.36s.11.26.15.38c.02.07.04.14.04.2s.02.14.04.2c.02.05.05.09.07.14s.03.1.03.14c.03.13.05.2.03.22s-.01.05,0,.07c.1.08.15.14.14.18s0,.07.05.08c.09-.11.13-.18.13-.2s0-.04,0-.06c.01-.01.05-.06.1-.14s.11-.17.17-.26.11-.19.15-.27.07-.14.09-.16c.05-.13.09-.21.13-.26s.07-.1.09-.15c.02-.03.03-.07.03-.1s.01-.06.03-.09c.13-.19.21-.34.26-.45s.1-.21.15-.32c.11-.2.22-.42.32-.64s.21-.43.33-.62c.02-.06.05-.11.09-.14s.07-.09.1-.14c.07-.13.13-.24.18-.36s.12-.23.2-.34c.07-.07.1-.12.09-.15s.01-.05.06-.03c.01-.05.03-.11.06-.2s.07-.19.11-.29.09-.2.13-.28.07-.14.09-.18c.01-.03.01-.07,0-.12s0-.08.03-.1c.05-.14.1-.25.15-.34s.1-.15.12-.17c.02-.03.03-.07.03-.11s.01-.08.03-.11c.08-.13.13-.22.15-.29s.02-.14,0-.22c.08-.03.12-.09.12-.18s.05-.14.14-.16c0-.13.03-.22.09-.27s.09-.15.08-.27c.09-.08.14-.18.15-.29s.06-.21.15-.29c-.01-.06,0-.1.02-.12s.03-.06.02-.12l.14-.14c.14-.22.26-.28.36-.2s.19.16.27.23c.31-.01.61,0,.91.04s.61.05.93.03c.1-.01.21-.01.32,0s.21.02.32.04c.02.06.05.11.09.16s.07.11.09.18c.02.05.03.09.03.13s0,.08,0,.13c-.06.02-.1.06-.13.1s-.07.09-.13.12c-.11-.02-.21-.07-.28-.14s-.18-.11-.32-.12c-.06,0-.1.01-.14.03s-.07.03-.12.03-.08-.01-.11-.04-.07-.04-.11-.03c-.16.03-.31.05-.44.05s-.27-.04-.41-.12c0,.06-.01.12-.03.2s0,.13.05.16c-.03.09-.05.2-.03.32s.02.22.02.32c.01.14,0,.22,0,.26s-.03.07-.03.1c-.01.02,0,.05,0,.09s.03.08.03.13c0,.08,0,.14-.02.2s.01.11.07.18c-.02.13-.02.24.02.35s.05.22.05.35c-.01.17,0,.28.03.34s.03.13,0,.22c.01.14.02.23.03.28s-.01.09-.06.11c.02.07.05.14.08.2s.04.14.04.2c.01.05,0,.09,0,.12s-.02.07,0,.1c0,.03,0,.07.03.09s.03.06.03.09c.02.08.03.16.03.24s0,.16,0,.24c.01.05.03.09.04.13s.03.08.03.13,0,.09-.02.12-.02.07-.02.1c0,.05,0,.09.03.13s.03.08.04.13c-.02.13-.03.19,0,.2s.03.03.04.05c0,.02,0,.08-.02.16s-.02.14-.02.18c-.02.16-.03.32-.02.47s0,.3-.02.45c-.03.13-.05.22-.04.29s0,.13,0,.19c-.01.16-.02.31-.03.45s0,.29.03.45c-.02.2-.04.37-.06.5s-.03.26-.04.38c.05.06.06.09.04.11s-.03.04-.04.08c0,.03,0,.07.03.1s.02.07,0,.12c-.01.17-.04.34-.08.52s-.03.35.04.52c-.07.14-.08.27-.03.39s.04.26-.02.41c.07.01.14.01.21,0s.15-.01.23,0c.03,0,.07,0,.1.02s.07.02.12.02c.06,0,.11,0,.15-.03s.1-.03.15-.04h.24c.08-.01.14-.02.17-.03s.09.01.17.07c.09.06.13.09.11.11s-.01.04,0,.08c.05.14.06.22.03.26s-.06.09-.12.14c-.13.02-.25.03-.38.03s-.26.02-.38.07c-.02-.01-.08-.02-.18-.03s-.2-.02-.32-.02-.22,0-.32.02-.16.02-.18.03c-.02-.09-.08-.12-.16-.09s-.16.04-.21.03c-.03,0-.07,0-.09-.03s-.06-.03-.09-.04c-.06,0-.11,0-.16,0s-.11,0-.16,0-.13-.02-.2-.03-.15,0-.2,0c-.05,0-.09,0-.13.03s-.08.03-.13.03c-.07.01-.14.02-.2.02s-.14,0-.2.02c-.11.01-.22.03-.32.06s-.19,0-.28-.09c-.01-.07-.02-.13-.03-.2s.02-.12.08-.18c.03-.03.08-.05.13-.05s.08-.03.09-.09c.07.05.14.06.21.03s.14-.04.21-.05c.02-.01.06-.01.11,0s.08-.01.08-.06c.07.06.13.07.18.03s.11-.06.16-.07c.09.02.16.02.2,0s.09-.03.12-.03c.07,0,.14.01.21.03s.15.02.23,0c.06-.01.1-.07.12-.16s.04-.2.04-.32,0-.22-.02-.32-.04-.18-.08-.22c.06-.13.09-.26.09-.41s.01-.3.03-.44c.01-.09.03-.18.04-.27s.03-.18.03-.27c0-.06,0-.11-.02-.17s-.02-.11-.02-.17,0-.11.03-.16.03-.11.04-.16c0-.03,0-.07-.02-.09s-.02-.06-.02-.09c.02-.13.03-.2.02-.23s-.02-.05-.02-.08c0-.03,0-.07.02-.1s.02-.07.02-.1c0-.05,0-.09-.02-.12s-.02-.08-.02-.14c0-.07.01-.14.04-.21s.01-.14-.04-.2c.05-.1.07-.18.08-.24s0-.11,0-.14,0-.08-.02-.13-.01-.11,0-.19c.01-.14.01-.25,0-.34s0-.16,0-.22c.01-.14,0-.2,0-.2s-.03-.02-.03-.05c-.01-.05,0-.09,0-.12s.03-.07.03-.1c-.02-.16-.05-.32-.07-.47s-.05-.3-.07-.45c-.01-.06-.02-.11-.03-.14s-.02-.09-.03-.14c.02-.13.02-.23,0-.32-.02-.15-.04-.29-.06-.43s-.04-.28-.06-.43c-.13.13-.18.27-.15.44-.03.02-.07.07-.11.15l-.13.26c-.05.09-.08.18-.11.27s-.04.15-.04.19c-.06.03-.09.08-.1.14s-.03.11-.05.17c-.05.1-.09.21-.12.32s-.08.22-.14.31c-.06.1-.11.2-.15.29-.06.11-.1.23-.13.34s-.07.22-.13.32-.11.2-.17.3-.1.2-.12.32c-.06.01-.09.04-.1.09s-.04.08-.09.1c-.01.1-.03.19-.07.26s-.07.16-.12.25c-.02.08-.05.12-.08.13s-.05.03-.06.06c-.02.09-.05.18-.09.26s-.07.16-.1.26c-.06.13-.11.25-.14.38s-.09.25-.14.38c-.05.11-.07.18-.07.2s0,.04-.02.06c-.07.08-.11.14-.12.2s-.03.11-.05.16c-.02.07-.06.16-.11.27s-.09.2-.13.26c-.07.07-.12.14-.14.23s-.07.13-.11.13c-.01.05-.01.09,0,.12s-.01.07-.07.1c-.06.14-.13.29-.2.47s-.1.34-.05.49c-.06.06-.09.13-.11.2s-.05.15-.11.2c-.1.02-.19.03-.26.02s-.14-.06-.21-.14c.01-.15.02-.29.03-.43s-.01-.27-.06-.41c-.07-.11-.12-.22-.14-.32s-.08-.17-.14-.23c-.01-.11-.03-.2-.06-.26s-.06-.13-.1-.2-.08-.14-.12-.2-.07-.11-.09-.14-.05-.07-.08-.09-.05-.06-.08-.09-.03-.07-.03-.11-.01-.08-.03-.11c-.01-.03-.03-.06-.04-.09s-.04-.05-.06-.09c-.01-.03-.01-.07,0-.1s0-.07,0-.12c-.02-.02-.05-.05-.07-.09s-.02-.07,0-.1c-.06-.01-.08-.04-.08-.08s0-.08-.03-.11c-.02-.05-.05-.09-.09-.12s-.07-.08-.09-.14-.06-.17-.1-.35-.06-.29-.05-.35c-.06-.05-.09-.1-.09-.16s-.02-.12-.04-.18c-.05-.13-.11-.24-.18-.35s-.14-.22-.2-.35c-.02-.05-.04-.09-.05-.13s-.03-.08-.05-.13c-.06-.06-.09-.11-.09-.14s-.01-.08-.03-.11c-.02-.05-.05-.08-.07-.11s-.05-.07-.07-.11c-.03-.09-.06-.18-.09-.26s-.07-.15-.14-.22c.05-.06.05-.11,0-.16s-.07-.11-.09-.16c-.02-.14-.05-.24-.08-.3s-.05-.12-.08-.18-.04-.12-.06-.18-.05-.11-.11-.13c.01-.09-.01-.21-.08-.36s-.13-.25-.21-.31c.02-.05.02-.08,0-.09s-.03-.05,0-.11c-.01-.01-.03-.05-.07-.1s-.07-.12-.12-.19-.1-.16-.17-.27c-.03-.25-.13-.44-.29-.58.03-.07.03-.14-.02-.2s-.08-.14-.1-.2c-.03-.1-.06-.15-.07-.15s-.02-.01-.03-.03c-.02-.06-.04-.11-.05-.16s-.03-.11-.07-.16c-.07-.06-.11-.11-.12-.14s-.05-.07-.1-.08c-.05.08-.05.16-.02.26s.06.18.09.26c.01.1.01.2,0,.31s0,.2,0,.31c.01.08.01.18,0,.29s.01.2.07.27c-.02.03-.04.11-.04.21s0,.22.02.35.04.24.06.34.05.17.07.2c-.05.03-.05.07-.03.12s.01.07-.04.07c.06.13.08.28.08.46s0,.34.03.46c0,.06,0,.1.02.14s.02.07.03.12c.03.17.05.36.06.55s.03.38.08.54c.05.08.06.13.05.14s-.02.03-.02.05c0,.05,0,.09,0,.13s0,.08,0,.13c.02.18.05.36.09.54s.06.36.09.54c.02.11.03.18.02.2s-.02.04-.02.06c0,.06,0,.11.03.14s.03.09.03.14c.02.13.05.26.07.4s.02.28,0,.42c.07.08.1.19.1.34s.01.27.03.36c.02.13.05.25.07.37s.04.24.05.37c.01.09.01.2,0,.32s.04.21.13.28c-.03.05-.05.11-.04.19s0,.15,0,.2c.02.03.05.04.09.03s.07-.03.09-.03c.1.01.16,0,.16-.02s.03-.03.06-.02c0,.09.03.16.09.2s.08.1.06.18c-.01.08-.08.15-.2.22s-.21.11-.28.14c-.1.02-.21.02-.32-.02s-.23-.04-.34-.02c-.14.01-.24,0-.3-.02s-.12-.04-.18-.05c-.07-.01-.14-.02-.21-.02s-.15,0-.23-.02c-.13-.01-.25-.03-.37-.04s-.24-.02-.37,0c-.08,0-.16.01-.23.03s-.16.04-.25.05c-.06.01-.11.01-.15,0s-.1-.01-.15,0c-.05.01-.09.03-.13.04s-.08.03-.13.03c-.16-.02-.26-.02-.3,0s-.09.03-.14.03c-.09-.05-.19-.05-.29-.02s-.19.04-.26.02c-.06-.02-.11-.07-.15-.13s-.07-.13-.07-.2c.08-.09.18-.15.31-.18s.26-.05.39-.05.27,0,.4,0,.25,0,.37-.03c.02-.05.03-.11.03-.19s-.02-.13-.07-.15c.03-.13.04-.27.03-.44s-.04-.32-.06-.44c.02-.1.02-.18,0-.23s-.05-.09-.06-.13c0-.11,0-.18.02-.2s.02-.04.02-.06-.01-.07-.03-.13-.03-.12-.03-.16c.03-.17.04-.31.02-.42s-.03-.22-.03-.33c0-.05,0-.09,0-.12s0-.07,0-.1c.01-.05,0-.09,0-.13s-.02-.07,0-.09c.05-.15.06-.24.04-.27s-.03-.07-.03-.12c.01-.09.03-.14.05-.16s.02-.09-.02-.21c.06-.11.08-.19.06-.22s-.03-.07-.03-.1c.07-.19.1-.34.09-.43s0-.2.02-.3l.03-.1s.02-.07.03-.12c0-.06,0-.11,0-.17s0-.11,0-.17c0-.09.01-.17.03-.25s.04-.15.05-.23c.03-.31.03-.61,0-.92,0-.05,0-.1,0-.16s-.02-.11-.08-.13c.03-.05.05-.11.06-.18s0-.14,0-.21v-.2c0-.07.01-.13.03-.19v-.24c0-.06,0-.11.02-.15s.03-.09.05-.14.05-.11.09-.2c.06-.1.08-.25.07-.43s-.01-.34,0-.45c.01-.09.03-.18.04-.27s0-.18-.04-.27c-.02-.06-.03-.13-.02-.21s0-.16-.02-.23c-.06-.14-.09-.23-.09-.27v-.14c0-.15.01-.26.04-.32s0-.18-.08-.32c-.02-.03-.03-.07-.02-.12s0-.1-.02-.15c-.1-.02-.22-.02-.35.02s-.25.06-.35.07c-.05.01-.09.01-.12,0s-.07,0-.1,0c-.07.01-.13.03-.2.06s-.13.03-.2,0c-.03-.01-.08-.04-.14-.09s-.09-.09-.1-.13c-.05-.16-.04-.26,0-.29s.09-.07.11-.12c.11-.01.24.01.38.07.1-.05.2-.07.29-.06s.19,0,.29,0c.03-.01.07-.03.09-.04s.06-.03.09-.03c.16.01.3,0,.41,0s.2-.04.26-.06c.06.03.13.06.23.09s.17,0,.21-.05ZM54.38,11.7s0-.07.02-.1.02-.06.02-.09c0-.03,0-.07-.03-.1s-.03-.07-.04-.1c-.01-.05-.01-.09,0-.14s.01-.09,0-.14c-.01-.06-.03-.11-.04-.14s-.03-.09-.04-.14c-.01-.05-.01-.09,0-.12s.01-.07,0-.1c-.02-.06-.03-.11-.03-.14s0-.09,0-.14c-.05-.14-.06-.22-.05-.26s.02-.06.02-.09c-.06-.41-.1-.79-.13-1.14s-.07-.7-.13-1.06c-.01-.06-.03-.12-.06-.18s-.04-.12-.04-.16c.02-.14.03-.22,0-.25s-.03-.05-.04-.08c-.02-.2-.04-.39-.06-.55s-.04-.32-.06-.48c-.01-.03-.02-.07-.03-.09s-.02-.06-.03-.09l.03-.22c.02-.06.02-.16,0-.3s-.05-.25-.06-.33c.02-.15.02-.25,0-.31s-.04-.11-.05-.17c-.02-.16-.04-.32-.05-.48s0-.32.02-.48c.01-.11.01-.22,0-.33s-.02-.22-.03-.33c0-.06,0-.12,0-.19s0-.13,0-.19c-.02-.19-.06-.4-.11-.61s-.07-.41-.04-.61c.01-.11-.02-.23-.09-.34s-.09-.2-.05-.27c-.03,0-.07,0-.09.03s-.06.02-.09,0c0,.14.02.26.07.36-.05.02-.06.06-.05.1s.02.09.02.12c-.01.19,0,.39.02.59s.05.4.09.59c0,.06,0,.11.03.15s.03.1.03.15,0,.11-.03.16-.03.11-.03.16c-.01.08-.01.16,0,.24s.01.16,0,.24c-.01.06-.03.12-.06.19s-.03.13,0,.19c-.03.06-.07.14-.1.24s-.06.18-.07.24c0,.15,0,.26,0,.33s0,.16,0,.25c-.01.1,0,.24.03.4s.04.28.03.33c-.01.08-.01.16,0,.23s.01.14,0,.21c-.07.18-.09.33-.08.43s.01.21,0,.32c-.01.06-.03.12-.05.18s-.04.12-.05.18c0,.03,0,.07.02.1s.02.07.02.12c0,.03,0,.07-.02.11s0,.08.02.11c-.01.01-.02.04-.03.09s-.02.11-.03.17l-.03.19c-.01.06-.02.1-.02.11-.01.05-.01.09,0,.13s.02.08.02.13c.01.15,0,.29-.03.43s-.05.27-.05.41c0,.06.01.11.03.17s.03.11.03.17c-.01.09-.03.16-.05.2s-.03.15-.02.31c0,.05,0,.09.03.12s.03.07.04.1c0,.06,0,.11-.03.14s-.02.09,0,.14c0,.06.01.11.03.15s.04.1.05.15c0,.18-.01.31-.04.38s-.04.15-.04.23c.02.05.05.09.07.12s.04.08.05.14c-.02.09-.02.16,0,.2s.05.1.06.18c0,.05,0,.09-.03.14s-.02.1,0,.15c.03.03.06.03.08,0s.05-.05.11-.03c.25.02.5.04.75.06s.5.04.75.06c-.02-.15-.03-.26-.02-.34s.02-.15.02-.22c-.01-.06-.03-.12-.04-.19s-.01-.13,0-.19l-.03-.03ZM62.7.99c-.03.1-.08.2-.14.29s-.1.19-.12.31c-.06.02-.11.09-.15.21s-.09.26-.14.41l-.14.43c-.05.14-.09.23-.12.29-.07.07-.11.13-.13.2s-.04.12-.08.18c-.02.03-.04.07-.06.09s-.04.06-.06.09c-.02.05-.04.1-.05.17s-.03.12-.05.15c-.07.08-.11.19-.14.32s-.08.25-.17.34v.19c-.07.06-.12.13-.15.21s-.08.16-.14.23c-.02.03-.07.09-.13.18s-.11.14-.13.18c-.03.1-.06.15-.08.15s-.03.01-.04.03c-.06.15-.1.26-.14.32s-.07.13-.12.19c.01.05,0,.08-.02.1s-.03.06-.02.12c-.08.05-.13.11-.16.18s-.06.15-.09.23-.08.15-.13.22-.09.14-.13.22c-.03.1-.06.16-.08.17s-.03.03-.04.05c-.02.05-.04.09-.05.13s-.03.08-.05.13c-.02.03-.04.07-.06.1l-.06.12s-.04.09-.05.13-.03.08-.05.13c-.11.14-.18.24-.2.3s-.05.12-.09.18c-.02.02-.04.05-.06.08s-.04.05-.06.08c-.06.09-.1.18-.14.27s-.07.18-.12.27l-.07.07s-.05.05-.07.09c-.03.18-.07.3-.1.37s-.06.13-.09.21c-.01.15,0,.24.03.26s.05.07.08.11c0,.07.03.16.09.27l.14.27c.08.09.13.18.14.28s.06.17.15.21c.14-.09.23-.21.29-.37s.12-.3.19-.45c.02-.06.05-.11.08-.16s.05-.11.08-.16c.05-.14.08-.22.09-.25s.04-.06.06-.09c.03-.11.06-.17.09-.18s.04-.02.05-.04c.01-.13.03-.21.07-.25s.06-.08.09-.13c.02-.08.04-.16.06-.23s.04-.15.06-.23c.06-.13.12-.25.2-.38s.12-.26.13-.41c.03-.02.08-.07.13-.14s.1-.16.14-.25.09-.18.12-.26.05-.15.05-.2c.05-.05.1-.13.17-.26s.14-.27.2-.41.13-.28.17-.42.06-.24.05-.31c.07-.09.11-.19.12-.31s.03-.23.05-.34c.05,0,.08-.02.09-.07s.04-.09.06-.12c.1-.11.16-.23.18-.35s.08-.21.18-.28c.06-.18.09-.32.11-.4s.04-.17.08-.26c.02-.05.05-.09.07-.13s.04-.08.05-.13c.08-.17.13-.32.15-.46s.05-.25.07-.34c.02-.06.07-.09.13-.09s.09-.05.09-.13c.01-.03,0-.08-.02-.14s-.03-.11-.02-.13c.07-.08.09-.17.08-.27s-.03-.17-.04-.2c0-.05,0-.09.02-.12s.02-.07.02-.1c0-.09,0-.19-.02-.29s-.03-.2-.07-.29h-.1Z"/>
        <path d="M72.79,9.82c-.12-.02-.23-.03-.35-.03s-.24,0-.37-.03c-.04-.01-.07-.03-.11-.04s-.08-.03-.12-.03-.09,0-.13.03-.08.02-.13,0c-.16-.05-.28-.06-.33-.05s-.12.02-.18.02c-.07,0-.14,0-.21-.02s-.13,0-.19.05c-.06-.06-.12-.07-.19-.04s-.13.04-.19.04c-.2-.05-.34-.06-.42-.05s-.17.03-.26.05c-.04-.04-.08-.05-.13-.05s-.1-.02-.13-.05c-.23.05-.46.07-.67.06s-.43-.04-.67-.1c-.09.23-.13.47-.11.69s.03.46.04.69c0,.05,0,.09-.02.13s-.02.08-.02.13c0,.13.02.24.07.34s.06.23.04.38c-.02.06,0,.1.05.12s.09.06.11.11c.01.09.04.17.09.23s.08.1.11.12c.06-.02.13-.02.22,0s.16.06.2.11c.09-.02.18-.03.25,0l.25.06c.09-.04.2-.06.31-.08s.22,0,.33.06c.04-.02.08-.04.15-.04s.11-.03.13-.06c.05-.01.09,0,.12,0s.07.03.11.03c.12-.06.19-.08.22-.07s.06.01.08,0c.12-.08.19-.12.23-.11s.07,0,.11,0c.06-.02.11-.06.15-.1s.09-.06.15-.04c.07-.09.16-.16.26-.19s.2-.1.28-.19c.12-.02.19-.05.23-.07s.06-.05.07-.09c.14-.02.24-.08.31-.18s.16-.17.27-.22c.02-.05.06-.09.11-.12s.08-.08.11-.14l.28.07c.09.02.17.08.23.16,0,.13-.04.22-.11.28s-.15.12-.25.18c-.09.08-.16.16-.19.23-.08.04-.14.07-.17.11s-.06.07-.1.11c-.05.04-.1.06-.15.07s-.09.05-.11.12c-.09.02-.2.06-.31.1s-.2.11-.25.22c-.02,0-.08.01-.17.04s-.18.07-.29.11-.21.09-.3.14-.15.08-.16.11c-.33.04-.65.08-.98.12s-.65.05-.99,0c-.04,0-.07,0-.11-.03s-.08-.03-.12-.04c-.04,0-.07,0-.1.02s-.06.02-.1.02c-.02,0-.05,0-.09-.03s-.07-.03-.11-.03c-.04-.01-.07-.02-.11-.02s-.08,0-.11-.02c-.05-.02-.08-.05-.11-.09s-.07-.06-.11-.09c-.06-.02-.12-.05-.19-.08s-.13-.06-.19-.08c-.05-.06-.09-.1-.13-.13s-.1-.04-.17-.03c-.08-.15-.22-.26-.4-.33-.06-.09-.13-.18-.21-.26s-.15-.17-.21-.26c-.06-.08-.1-.17-.12-.26s-.07-.18-.14-.25c.01-.15,0-.25,0-.28s-.03-.08-.04-.12c-.04-.11-.05-.22-.04-.33s-.04-.22-.13-.32c.01-.02.02-.09.03-.21s0-.24,0-.37-.02-.25-.04-.36-.03-.18-.04-.2c.02-.04.04-.07.04-.11s0-.08.02-.11l.05-.24c.01-.05.03-.11.05-.17.01-.04.01-.07,0-.11s0-.08.03-.11c.07-.12.1-.19.09-.23s-.01-.06,0-.09c.06-.11.08-.18.07-.22s-.01-.08,0-.11c.01-.05.03-.09.05-.14s.04-.1.05-.16c.07-.04.12-.08.14-.13s.06-.08.12-.1c0-.05.01-.09.04-.12s.04-.08.04-.14c.06-.02.11-.06.15-.1s.09-.07.15-.1c.09-.2.23-.35.41-.46s.36-.21.54-.32c.07-.01.14-.02.22-.03s.14-.02.2-.04c.04-.01.07-.04.11-.07.04-.04.08-.04.11,0,.12-.11.2-.15.24-.14s.07,0,.1-.02c.11-.08.21-.13.3-.16s.18-.02.25.02c.11-.04.2-.06.28-.07s.18,0,.28.02c.06,0,.11.01.15.04s.09.04.15.04c.06.01.11,0,.17-.02s.11-.03.17-.02c.05.01.08.03.11.04s.07.04.11.06c.19.04.32.06.4.08s.16.06.25.11c.06.04.11.09.17.16s.1.12.15.14c.09.02.15.05.16.07s.03.04.05.05c.12.02.19.06.21.11s.07.07.14.06c0,.06.02.14.07.25s.08.19.09.26c.01.05.03.08.06.11s.06.06.08.1c.01.13.03.25.05.37s.05.24.07.37l.04.11.04.11s.01.05,0,.09-.01.07,0,.11c.05.11.07.16.06.18s0,.03,0,.05c.01.04.02.07.04.1s.02.06.02.1c.02.09.04.18.04.26s.02.17.07.26c-.05.16-.05.25,0,.27s.06.07.04.15c-.01.06-.06.12-.14.19s-.15.12-.19.16ZM66.94,7.37c.01.09,0,.15-.04.18s-.07.06-.1.12c-.02.13-.03.22-.02.26s.01.09,0,.12c-.07.04-.1.07-.08.1s.02.07,0,.13c-.08.15-.12.25-.11.31s0,.09-.03.11c-.06.08-.08.15-.05.21s.04.13.04.21c-.01.12-.04.22-.07.3s0,.18.09.3c-.04.07-.04.15,0,.25s.03.19,0,.28c.02.04.05.07.07.1s.05.06.07.1c-.02.2,0,.39.09.58s.15.38.21.56c.05.04.09.07.14.11s.09.08.14.11c-.02-.08-.03-.16,0-.25s.01-.16,0-.25c-.01-.04-.03-.07-.04-.1s-.03-.06-.03-.1c0-.06,0-.1,0-.13s0-.06,0-.09,0-.06,0-.1-.02-.09-.04-.18c.08-.2.12-.39.12-.58.01-.04.01-.07,0-.11s-.02-.07-.02-.11v-.34c0-.11,0-.23.02-.34.02-.16.05-.33.09-.5s.04-.34.02-.5c.04-.04.07-.1.1-.2s.06-.2.08-.31.04-.21.04-.31,0-.18,0-.24c.09-.13.12-.27.07-.42-.16.07-.3.17-.4.3s-.22.26-.35.39ZM72.21,7.99c-.06-.09-.08-.16-.07-.19s.01-.07,0-.11c-.02-.08-.05-.17-.08-.26s-.07-.18-.11-.25c.01-.06,0-.11,0-.15s-.03-.09-.03-.15c-.08-.05-.13-.13-.16-.26-.08-.01-.15-.05-.2-.11s-.11-.11-.17-.15c-.08-.04-.12-.06-.12-.08s-.01-.03-.04-.04c-.04-.04-.07-.06-.11-.07s-.06-.05-.04-.11c-.08.02-.16.02-.22-.02s-.14-.06-.22-.07c-.06-.01-.12-.02-.18-.03s-.12,0-.18,0c-.14.01-.23,0-.25-.03s-.07-.02-.13.03h-.12c-.06,0-.09-.01-.11-.04-.19-.01-.34,0-.45.05s-.25.09-.41.14l-.16.16c-.08.14-.14.23-.17.28l-.13.21c.02.09,0,.22-.04.39s-.07.31-.06.44c-.01.04-.02.07-.04.1s-.03.06-.05.1c.04.09.04.2,0,.32s-.08.22-.14.32c.05.08.04.18,0,.3s-.06.2,0,.25c.23.09.48.13.74.12s.51-.02.76-.02c.09,0,.18,0,.25.03s.16.03.24.04c.13,0,.25-.01.38-.04s.25-.04.38-.03c.14.05.23.06.27.05.04-.01.08-.02.11-.02.16-.01.32,0,.47.04s.3.04.45,0c.04.05.08.06.14.04s.11-.04.16-.04c.01-.06.01-.16,0-.3s-.02-.24-.04-.3c-.05-.13-.08-.25-.09-.35v-.18Z"/>
        <path d="M78.01.97s.02.06.04.1.01.08,0,.13c-.04.08-.05.13-.04.14s.01.03,0,.05c-.12.09-.18.19-.19.29s-.04.2-.09.29c.04.16.03.33,0,.51s-.07.35-.1.51c.02.08.06.15.11.19-.06.09-.08.19-.07.3s.01.21,0,.3c-.01.05-.03.1-.04.16s0,.11.04.16c-.01.06-.03.16-.04.31s-.04.3-.07.47-.06.32-.08.46-.05.22-.07.25c.04.09.04.19,0,.28s-.06.19-.08.28c-.02.11-.03.18,0,.21s.02.06,0,.09c-.06.12-.08.21-.07.26s0,.11-.05.16c.06.13.06.25.02.36s-.04.2.02.25c.01.05,0,.08-.04.11s-.06.05-.07.09c-.01.05-.01.09,0,.12s.01.07,0,.11-.03.06-.05.09-.04.05-.05.09c-.01.06-.01.13,0,.2s.02.15.04.22c-.05.06-.07.13-.08.22s-.02.17-.04.24c-.06.13-.08.21-.07.25s.01.08,0,.13-.03.09-.05.12-.04.07-.04.11c.01.07,0,.12,0,.14s-.03.05-.03.07c-.02.07-.04.13-.04.19s-.03.12-.06.19c-.18.04-.35.08-.52.13s-.35.05-.54,0c-.01-.06-.04-.1-.08-.13-.04-.03-.09-.06-.15-.1.07-.11.1-.17.08-.18s-.03-.04-.04-.08v-.58s0-.07.02-.1.02-.06.02-.1c0-.06,0-.11-.03-.15s-.03-.09-.04-.15c.02-.15.03-.25,0-.29s-.03-.08-.03-.13c0-.07,0-.14,0-.21s0-.14,0-.21c-.01-.06-.03-.11-.04-.16s-.03-.09-.03-.14c-.01-.07-.01-.14,0-.2s.02-.13.04-.2c0-.13,0-.25,0-.37s0-.24,0-.37c-.01-.05-.01-.1,0-.16s-.01-.09-.07-.11c.02-.11.03-.22.03-.34s-.05-.23-.13-.33c.02-.11.02-.22-.02-.33s-.08-.22-.14-.32c.02-.05.03-.09,0-.14s-.03-.1-.04-.16c-.01-.09-.02-.19-.03-.29s-.02-.2-.04-.29-.04-.19-.06-.29-.04-.2-.06-.31c-.05-.25-.08-.5-.1-.75s-.03-.5-.03-.75c.02-.12,0-.23-.04-.33s-.05-.18,0-.24c-.04-.08-.07-.14-.1-.18s-.03-.11,0-.2c.05-.06.13-.09.26-.09s.22-.02.26-.05c.11.07.2.11.27.12s.14.02.18.02c.13,0,.29-.03.48-.09s.34-.06.43-.02c.08,0,.16,0,.23-.02s.15-.02.23-.02c.06.01.11.03.17.04s.11.03.17.03c.04,0,.07,0,.1-.02s.06-.02.1-.02c.2.01.42.06.65.14ZM76.31,10.96c.15.09.24.13.26.12s.06,0,.11.05c.12.13.21.22.26.27s.1.13.12.22c.05.09.08.16.11.2s.05.09.06.15c-.02.16-.02.27,0,.33s.03.12,0,.2c-.08.13-.12.21-.12.25s-.01.07-.04.1-.07.06-.14.11-.15.11-.23.17-.16.11-.25.16-.14.08-.18.09c0-.01-.03-.02-.09-.04s-.11-.03-.14-.05c-.11.01-.16.01-.18,0s-.03-.02-.05-.04c-.13-.01-.2-.02-.22-.04s-.04-.02-.06-.04c-.06-.02-.12-.03-.18-.03s-.1-.03-.11-.1c-.23-.23-.37-.43-.4-.59s.03-.35.17-.59v-.3c.08-.07.15-.12.2-.15s.13-.06.22-.08c.15-.02.26-.08.33-.16s.16-.12.28-.11c.09-.09.16-.12.19-.09s.05.02.04-.05ZM75.5,1.48c-.06-.02-.11-.04-.17-.04h-.17c0,.12,0,.23-.02.33s0,.22.02.33c.02.09.05.19.08.28s.04.19.03.3c-.02.09-.03.15,0,.17s.03.04.04.06c.01.04.01.07,0,.11s-.01.08,0,.11c.01.06.03.11.04.14s.03.08.04.12c.02.06.03.11.03.17s0,.11,0,.17c0,.01,0,.04.03.07s.03.07.04.11.02.06.03.09,0,.04-.03.04c.05.16.08.31.1.45s.04.27.06.4c.02.09.05.19.09.28s.06.19.09.28c0,.04,0,.07,0,.11s0,.08,0,.12c.08.34.11.62.09.83s-.04.43-.04.67c0,.07,0,.14,0,.22s.01.15.03.22c.01.06.03.11.04.16s.03.1.03.16c0,.05,0,.09-.02.13s-.02.08-.02.13c0,.16.02.33.05.49s.06.33.07.49c.01.06.01.12,0,.19s.02.12.11.14c.01-.08.04-.21.08-.4s.08-.37.12-.55.08-.36.11-.53.04-.28.03-.33c.06-.06.09-.13.09-.21v-.25s.03-.07.04-.11c.02-.04.03-.08.03-.11-.02-.09-.03-.15-.02-.17s.02-.04.02-.06c0-.04,0-.07-.02-.1s-.02-.06-.02-.1,0-.07.03-.1.03-.06.04-.1c.01-.05.01-.09,0-.13s-.01-.08,0-.13c.01-.07.03-.14.04-.2s.03-.13.04-.2.02-.14.02-.21,0-.14.02-.21c.01-.02.03-.06.05-.11s.02-.08-.02-.08c.04-.11.06-.2.08-.29s.04-.18.06-.27c.06-.36.08-.73.07-1.09s0-.73.02-1.09c.02-.16.04-.32.06-.47s.03-.3.04-.47c-.08.02-.16.01-.22-.04s-.13-.08-.2-.09c-.04-.01-.07,0-.11,0s-.08.03-.13.03c-.11,0-.21,0-.32-.02s-.22,0-.33.02c-.07.01-.13.03-.19.06s-.12.05-.19.06ZM76.45,11.71c-.13-.09-.23-.13-.32-.1s-.16.07-.23.11-.13.09-.18.14-.1.06-.13.04l-.04.32c-.01.11-.03.21-.05.32.09.06.19.08.3.05.05.08.12.13.21.15s.19.01.28,0,.18-.06.26-.12.13-.13.16-.21c-.02-.11-.04-.23-.05-.38s-.08-.25-.21-.31Z"/>
      </g>
      <g>
        <g>
          <path class="cls-1" d="M79.55,17.84c.01-.05-.05-.1-.13-.03v.15s.13-.12.13-.12Z"/>
          <path class="cls-1" d="M78.78,18.02c-.08.12-.15.3-.01.36.04-.18.1-.15.14-.35.09-.07.19-.06.2-.01.02-.05.16-.06.17-.17-.18-.01-.33.08-.45.25-.05,0-.03-.05-.04-.08Z"/>
          <path class="cls-1" d="M68.71,21.37h.07s-.04,0-.07,0Z"/>
          <path class="cls-1" d="M62.14,21.91c.05,0,.07-.02.07-.03-.05,0-.08.02-.07.03Z"/>
          <path class="cls-1" d="M61.02,21.77s.04,0,.07,0c-.03-.01-.05-.02-.07,0Z"/>
          <path class="cls-1" d="M68.71,21.37h-.18s.09,0,.18,0Z"/>
          <path class="cls-1" d="M77.65,19.03s.05-.05.07-.08l-.07.05v.02Z"/>
          <path class="cls-1" d="M71.53,20.66h.05s.02-.05.03-.08l-.08.08Z"/>
          <path class="cls-1" d="M73.65,20.01s-.03.12-.03.17c.01-.05.04-.08.08-.11,0-.02-.02-.04-.05-.07Z"/>
          <path class="cls-1" d="M76.99,18.85l.05-.04s-.03.03-.05.04Z"/>
          <path class="cls-1" d="M69.97,21s-.02-.03-.03-.04c0,.01.01.03.03.04Z"/>
          <path class="cls-1" d="M33.03,17.22s0-.01.01-.02c-.02,0-.03,0-.01.02Z"/>
          <path class="cls-1" d="M31.72,14.84l.03.03s.04-.02.06-.03h-.08Z"/>
          <path class="cls-1" d="M58.96,21.59h0c.05,0,.02,0,0,0Z"/>
          <path class="cls-1" d="M53.9,15.32c-.21-.1.34-.13.02-.24.03.04-.28.18-.02.24Z"/>
          <path class="cls-1" d="M77.59,19.04l-.08.04s.06-.03.08-.04Z"/>
          <path class="cls-1" d="M53.92,15.08h0s-.03-.01-.03-.01c.01,0,.02,0,.03.01Z"/>
          <path class="cls-1" d="M54.25,21.28s.02.04.04.06c0-.01,0-.03-.04-.06Z"/>
          <path class="cls-1" d="M57.75,21.76l-.09-.02s.06.02.09.02Z"/>
          <path class="cls-1" d="M52.45,21.09s-.06-.04-.12-.04l.02.02s.06,0,.11.02Z"/>
          <polygon class="cls-1" points="50.7 20.49 50.72 20.52 50.77 20.54 50.7 20.49"/>
          <path class="cls-1" d="M38.36,19.98s-.05-.09-.05-.13c0,.09-.28.02.05.13Z"/>
          <path class="cls-1" d="M77.62,18.97s0,.05-.03.07l.05-.04s0-.03-.03-.03Z"/>
          <path class="cls-1" d="M52.16,21.93l-.3-.1c.08.03.19.07.3.1Z"/>
          <path class="cls-1" d="M52.23,20.63l-.07.03s.05-.01.07-.03Z"/>
          <path class="cls-1" d="M50.94,21.55c-.04-.06-.09-.1-.14-.14-.02,0-.03,0-.05.01l.19.13Z"/>
          <path class="cls-1" d="M38.31,19.86h0s0,0,0,0Z"/>
          <path class="cls-1" d="M36.28,19.36c.27.13.19-.07.28-.13.34.11.11.17.19.29.22.05.42,0,.58.06,0,.03.03.05-.02.06.26-.03.66.22.97.17.02.02.02.03.02.05-.02-.08,0-.16.02-.21.13.04.26-.01.28.1-.08-.03-.09,0-.14.02h.14c.08.18-.19-.01-.22.09.27.05.6.03.79.11,0,.14-.48-.08-.25.11-.1-.04-.2-.09-.29-.14.17.28-.18-.08-.03.21.4.17.48.06.88.21.11-.05,0-.12.11-.17.61.02.38.45.85.38.13-.07.21-.23.5-.08l-.14.13c.4.09.27-.17.67,0-.09.05-.33,0-.27.02.25.17.21-.05.42-.01l.02.14c.43.07.92.03,1.4.06-.03.04-.12.07-.01.12.61.02,1.29.16,1.87.26l.23-.1c.05,0,.09.06.04.08.23.06.02-.07.13-.11.13,0,.17.08.08.11.41-.06,1.15-.2,1.57-.07l-.08.04c.33.05.37-.24.68-.13l-.06.02c.72.02,1.5-.14,2.06-.01.09-.18.72-.02.73-.26.42.06.31.12.9.12.16-.01.2-.19.39-.25l.03.12.23-.18.16.12.17-.07c-.07,0-.16-.02-.16-.06.26-.11.69-.05.71.01.21-.07.42-.17.62-.26,0,.05-.1.1-.18.15.31-.22.09.11.38-.09-.05-.02,0-.08,0-.1.18.03.53-.07.79-.17l-.03.1c.49-.11.98-.39,1.5-.57-.2.03-.21-.12-.07-.19l.11.1c.07-.11-.18.01-.01-.15.2-.06.19.09.09.17l.22-.13s-.02.07-.01.12c.06-.11.46-.06.54-.25l.03.03c.52-.25.73-.42,1.13-.72-.06-.09.11-.19.16-.36.28-.21.66-.51.81-.99.04-.35-.06-.12-.09-.29.12,0,.14-.52.2-.24,0-.32-.06-.53-.15-.74-.1-.2-.26-.42-.57-.62.03.08.08.15.03.15-.1-.07-.2-.21-.16-.24h.03c-.7-.32-1.53-.89-2.11-.76h.03s-.57.03-.57.03c-.26-.04.16-.06-.02-.14-.62.11-.97-.1-1.48.02-.41-.31-1.4.09-1.96.03l.05.06c-.12.1-.17,0-.28,0,.03.05.16.03.09.09-1.11.34-2.43.72-3.33,1.78-.3.42.13.41-.28.89l-.05-.22c-.15.49-.26,1.03-.17,1.58.09.53.33,1.02.69,1.35-.06-.03-.09,0-.15-.08.04.24.52.56.57.49.11.1-.02.08.02.16.12.18.47.19.5.33,0,.02-.06,0-.1-.02.13.04.5.31.45.15.27.21.59.24.81.4.2-.05.5.25.61.1-.08.17.5.31.72.28-.08.04.16.1.06.15.23.05.44.07.42-.03.37.31.87,0,1.05.31.7,0,1.32.02,1.92.02-.04.18-.66-.05-.66.14.58-.02.92-.14,1.48-.04.14.04-.09.07-.14.1.58-.03,1.1.09,1.62.03,0,.02-.06.03-.11.04.1,0,.23.04.22-.04l-.1.02c-.15-.13.41-.23.43-.29-.18.23.5.08.21.36.07-.01.15-.05.14-.1.1.02.13.05.02.11.36-.03.24-.12.56-.11,0,.04-.07.05-.1.1.17-.07.33-.14.61-.1-.02.02.01.06-.07.05.47,0,.81-.2,1.32-.12-.15.17.18.06.2.21l.28-.05-.11-.07c.24,0,.46-.12.67-.07l-.18.07.46-.04-.26-.05c.24-.08-.03-.19.29-.15-.07.02.24,0,.37.08h0c.12-.05.24-.1.42-.08.05.05-.03.17,0,.2.11-.13.57-.07.71-.21-.05.03-.05.11-.03.13l.09-.11c.11.03.13.04.12.1.34,0-.12-.18.29-.12-.03,0-.01.02-.08.04.41.03.77-.12,1.15-.11.12.14-.32.07-.18.18.53-.08,1.09-.27,1.61-.31h-.1c.05-.22.4.05.64-.08-.06.02-.07.13-.05.1.36,0,.71-.14,1.23-.31l-.06.07c.21.01.55-.06.78-.08.06-.06.19-.08.09-.14.75.16,1.27-.43,1.92-.33-.07.02-.16.09-.1.08l.5-.18c-.06-.08-.08-.04-.21-.08.05-.07.18-.15.31-.18-.21.12.04.14.15.17-.02-.02,0-.06-.01-.09.31.09,0-.19.39-.18v.05c.12-.06.23-.15.38-.19.09.08-.13.09-.11.18.2-.07.34-.32.56-.28-.08.06-.2.1-.28.15.24.06.25.02.41,0h-.02s.36-.05.36-.05h-.1c.17-.35.51-.21.78-.51-.27.29-.02.11,0,.24.1,0,.24-.01.22.03.13-.15.29-.03.47-.25.02.03.17-.06.17.04.2-.11-.07-.04-.07-.1.27-.23.81-.15,1.19-.52.35-.25.38-.38.69-.62.14,0-.03.18-.03.18.21-.05.35-.13.51-.26-.02.05.03.06.1.07.14-.08.03-.18.25-.22-.01.06-.02.14-.07.21.15-.12.29-.27.44-.39.08.04-.06.15-.1.22.19-.12.47-.34.47-.47l-.14.04c.07-.05.08.06.04.11-.12.17-.25.11-.28.08.04-.03.07-.06.11-.09-.23-.12-.48.29-.73.42l.03-.2-.19.26c-.07-.01-.15-.07-.04-.16-.21.02-.13.14-.32.13-.02,0-.02-.02,0-.03l-.15.13s-.08-.09.04-.12c-.35.07-.46.35-.63.29l.02-.02c-.42.25,0,.13-.27.41l-.34-.18v.13s-.14.05-.14,0c-.14.15.05.04-.02.15-.27,0-.61.29-.73.13-.05.12.24-.01.02.14-.14-.17-.27.14-.51.13.03-.13.24-.15,0-.16-.06.22-.41.12-.58.2.04.14-.37.18-.65.32,0-.06-.58.11-.88.12v-.03c-.01.16-.31.21-.51.29-.01-.09.02-.13.12-.2l-.2.05c-.03.06-.09.1-.21.15l.02-.12c-.26.08-.5.27-.86.26,0,.1.34.22-.01.36-.03-.05-.06-.14.03-.18-.03.01-.1.07-.17.06l.13-.12c-.17,0-.07.09-.19.11-.01-.08-.1-.04-.1-.1.03-.01.12,0,.16-.03-.14.02-.32,0-.39-.04.02.04.02.1-.08.14-.27.06-.11-.07-.27-.08-.05.07-.23.05-.22.17-.08.01-.1-.04-.14-.07-.13.07-.65.12-.47.22h.04s-.02.01-.02.01h0s0,0,0,0c-.44.19-.96.1-1.41.2v-.04c-.27.08-.61.1-.79.21-.08.01-.2-.05-.17-.1-.2.06-.22.1-.53.07.2-.09-.08-.05.21-.07-.28,0-.34-.07-.62.07.09-.11-.22-.11-.34-.07l.2.05c-.14.03-.27.03-.4.03l.06-.14c-.56-.1-.98.34-1.42.1-.14.1.31.05.18.16-.26,0-.53-.18-.61-.18-.35-.05-.32.2-.69.17.05.05.1.17-.18.22-.26-.01-.32-.19-.16-.23.06,0,.09,0,.09.03.08-.02.19-.04.09-.09l-.03.05c-.13-.05-.48-.03-.4-.11-.19.05-.08.08.06.1-.33-.06-.51.02-.85-.04.05.03.1.08.05.08-.5-.06-.22.09-.56.11-.19-.07.07-.17-.27-.11-.21-.05-.04-.13.04-.16-.31.09-.57-.06-.75-.09l.16-.03c-.1.02-.18.02-.26.01l.09.1c-.09-.02-.18-.02-.17-.06-.1.06.07.16-.13.24-.13-.05-.39.04-.43-.09.4.06-.04-.13.3-.14-.07.01-.15,0-.24-.01-.01-.01.01-.03.04-.03-.38-.13-.18.14-.58.12.05-.07-.09-.14-.15-.13.16,0,.07.12-.08.17-.25-.07-.28.02-.41,0l.15.04c-.06.07-.18.05-.36.06-.01-.06.16-.03.1-.06-.21.11-.44-.16-.72-.09-.12-.06,0-.13-.11-.17-.31.07-.32-.12-.65-.07.08.1.1.08-.13.15l.54-.02-.35.11c.16.02.34-.03.44,0-.17.07-.15.04-.08.13-.21-.16-.44.04-.69-.08l.03-.23c-.37-.14-.69.06-1.17-.05l.15.06c-.08.09-.3-.02-.47,0,.02-.08-.07-.12-.13-.18,0,.06-.35-.06-.42.09l-.2-.14c-.38-.11-.48.14-.86.04.13-.06-.03-.15.24-.16-.12-.03-.23-.06-.25-.01-.06-.07-.37.02-.46-.08-.06.02-.1.09-.23.05-.01-.02.01-.04.01-.04-.01.04-.23,0-.13.11-.3-.34-1.06-.32-1.27-.67-.26-.09-.56-.22-.76-.36.03-.01.02-.03.06,0-.23-.24-.31.07-.56-.24-.07-.22.2.08.14-.04.13-.22-.37-.27-.38-.57l.05.04c-.03-.19-.34-.3-.4-.6,0,0,.03,0,.04,0-.21-.14-.29-.55-.26-.86.08.11.03.14.14.1.01-.13-.17.02-.14-.26.08-.07.19-.24.31-.22-.04.07-.05.15-.08.23.17-.07.1-.29.19-.4l.05.04c.16-.32.05-.42.33-.74h-.07c.05-.28.2-.08.29-.32l.16.07c.09-.12.33-.45.57-.62-.08.18-.32.4-.43.58.11-.1.41-.3.44-.4-.04.05-.09.12-.15.13.09-.2.28-.39.57-.51.06.29.78-.23,1.07-.03.5-.24,1.06-.16,1.69-.21-.24-.23.19-.01.14-.26.15-.02.21-.01.22,0l.46.15c.11.07-.14.05-.13.11.32.02.13.11.34.18-.04-.09.12-.12.3-.07l-.25-.13c.47-.1.38.23.84.15l-.15.06c.24-.02.86.11,1.11-.03.03.04.07.11-.03.11.51.12,1.22.15,1.37.5l-.06.02c.06.04.17.02.17.13-.02,0-.07,0-.05.04.03.01.18.12.15.22-.02-.02-.06-.04-.08-.06,0,.3.15.6-.04.98-.14-.09-.4.13-.58.23v-.02c-.45.33-.77.67-1.29.98-.42-.02-1.21.38-1.8.48.1,0,.03.13-.07.18-.15,0-.34.22-.37.06h.05c-.15-.13-.41-.02-.63.04l.02.21c-.63-.12-1.5.43-1.87.24-.13.08-.3.11-.44.18v-.11c-.41.02-.6.03-1.09.12l.09-.09c-.27.03-.31.37-.57.4l-.09-.16c-.48.03-.98-.08-1.45.1,0-.03.02-.08.1-.09-.23.02-.88-.1-.79.14,0-.15-.5-.01-.76.05l.04-.11c-.22.14-.23.18-.54.22-.07-.02-.06-.09.03-.06-.24-.07-.19.09-.49.02l.11-.06c-.25-.02-.23.02-.37.09-.16.04-.48-.06-.51-.16-.04.06-.18.13-.33.1-.02-.04.04-.06.07-.07-.41-.09-.63.06-.91-.07,0-.04-.02-.06-.04-.07.33.04.6.08.57.08,0-.1-.26-.15-.03-.27-.22.05-.6.18-.86.1-.01-.01-.02-.02-.03-.04h.03c-.06-.03-.11-.02-.17-.01-.08-.03-.13-.05-.21-.06-.02-.09-.3-.07-.43-.11,0,.11-.18.06-.03.19-.02-.01.03,0,.12,0,.02,0,.04,0,.06,0h-.01c.09.02.2.03.33.04-.11.04-.23.08-.37,0-.08.06-.17.12-.21.15-.16-.19-.49-.34-.52-.44-.41-.02-.96-.12-1.25,0-.12,0-.12-.09-.15-.14.07,0,.15.02.19,0-.24,0-.67-.15-.76-.02-.27-.14.19-.09-.2-.17l.06-.03c-.7-.4-1.34-.04-2.08-.59.05.04.08.06.08.08-.44-.25-.92-.44-1.4-.63-.47-.22-.91-.48-1.28-.8-.21-.19-.28-.14-.46-.18l.02-.13-.32-.06c-.41-.17-.39-.65-.87-.88v.11c-.13-.14-.47-.39-.38-.43-.02,0-.11.01-.13-.07l.04-.05c-.15-.08-.24-.19-.37-.29-.17-.32.23-.11-.05-.53-.13-.14-.47-.34-.47-.26.04.06.08.18.03.22l-.13-.13c-.18.07-.43.04-.27.49l.28.2v.14s-.18-.22-.18-.22c.02.18.14.22.25.27-.02.05-.02.11,0,.17l.33.15c-.03.08-.2-.03-.1.18.16.06.03-.21.24-.07.04.16-.04.18.14.26-.02.05-.07.04-.13,0,.16.08.32.29.45.28.04.19.4.36.28.48.06.01.31.07.43.16-.35,0,.43.34.24.48.28-.04.63.38,1,.45-.02,0-.07,0-.1-.01.16.11.18.19.28.28.1-.12.39,0,.57,0,.14.25-.21.09-.22.25.05-.12.43.1.4-.04.12.18.12.11.15.27.12-.16.17.04.36,0,.2.2-.01.19.28.26.1.11-.16.07-.16.07ZM43.06,20.81h0c-.06,0-.11,0-.14,0,.03,0,.07,0,.14,0ZM43.63,20.87c-.07,0-.16-.02-.25-.03-.02-.04.01-.08.07-.07-.03.02.1.06.18.1ZM42.53,19.96c.09,0,.12.02.13.04-.04,0-.09,0-.16,0h-.01s.02-.03.04-.04Z"/>
          <path class="cls-1" d="M42.35,20.09s-.02,0-.04,0c.02.01.03.02.05.03l.04-.03h-.05Z"/>
          <path class="cls-1" d="M68.8,21.37h-.01s.02,0,.03.01c0,0,0,0-.02-.01Z"/>
          <polygon class="cls-1" points="51.61 20.81 51.6 20.78 51.56 20.82 51.61 20.81"/>
          <path class="cls-1" d="M71.95,21.08s.02.01.05.02c0,0-.02-.01-.05-.02Z"/>
          <path class="cls-1" d="M73.27,20.72l.2-.02c-.09,0-.15.01-.2.02Z"/>
          <path class="cls-1" d="M74.29,20.44s0-.04,0-.05h0s0,.05,0,.05Z"/>
          <path class="cls-1" d="M57.77,22.51h-.04c-.1.02-.03.01.04,0Z"/>
          <path class="cls-1" d="M62.75,22.32c-.05.02-.1.04-.16.06.09,0,.16,0,.16-.06Z"/>
          <polygon class="cls-1" points="52.19 21.94 52.19 21.94 52.16 21.93 52.19 21.94"/>
          <path class="cls-1" d="M62.36,22.38c.09.02.16.01.23,0-.07,0-.16-.02-.23,0Z"/>
          <path class="cls-1" d="M78.48,18.59l.05-.02s0-.01,0-.02l-.04.04Z"/>
          <path class="cls-1" d="M78.52,18.55l.04-.04s-.04.03-.04.04Z"/>
          <path class="cls-1" d="M78.65,18.42l-.09.09s.08-.04.09-.09Z"/>
          <path class="cls-1" d="M77.22,19.2v.04s0-.03,0-.04Z"/>
          <path class="cls-1" d="M76.85,19.4c.1-.03.27-.03.38-.12v-.04c-.04.08-.32.06-.38.16Z"/>
          <path class="cls-1" d="M75.03,19.64l.34-.09c-.07-.02-.17-.04-.03-.11-.46.04.12.06-.31.2Z"/>
          <path class="cls-1" d="M73.99,19.96c.17-.09-.02-.06-.02-.09-.1.08-.12.1.02.09Z"/>
          <path class="cls-1" d="M66.36,21.64v-.1c-.13.03.01.04,0,.1Z"/>
          <polygon class="cls-1" points="64.9 22.3 65.05 22.35 65.11 22.25 64.9 22.3"/>
          <polygon class="cls-1" points="63.97 21.63 64.03 21.62 63.79 21.67 63.97 21.63"/>
          <path class="cls-1" d="M51.03,20.53v.13c.09.01.16-.11,0-.13Z"/>
          <path class="cls-1" d="M49.44,16.73c.09,0,.21-.08.24-.18-.1.07-.21.13-.24.18Z"/>
          <polygon class="cls-1" points="52.88 19.51 52.98 19.44 52.79 19.53 52.88 19.51"/>
        </g>
        <g>
          <path class="cls-1" d="M73.4,24.75s.09.07.1.03l-.1-.09v.06Z"/>
          <path class="cls-1" d="M73.73,24.68c-.03-.07-.1-.17-.22-.22.08.1.03.08.14.2,0,.04-.07.03-.11,0,.02.03-.05.03,0,.09.11.02.15-.03.11-.12.03,0,.05.03.07.05Z"/>
          <path class="cls-1" d="M75.9,22.06h-.03s.02,0,.03,0Z"/>
          <path class="cls-1" d="M77.31,20.51s0,.03,0,.04c0-.02,0-.03,0-.04Z"/>
          <path class="cls-1" d="M77.66,20.34s-.01,0-.02,0c.01,0,.02,0,.02,0Z"/>
          <path class="cls-1" d="M75.9,22.06l.07-.02s-.04,0-.07.02Z"/>
          <path class="cls-1" d="M73.73,24.11s0,.03.01.05v-.03s-.01-.01-.01-.01Z"/>
          <path class="cls-1" d="M75.41,22.85h-.01s.02.04.03.06l-.02-.06Z"/>
          <path class="cls-1" d="M75.01,23.43s-.07-.08-.11-.11c.03.03.04.06.04.07.02.01.04.03.07.04Z"/>
          <path class="cls-1" d="M74.2,24.24v.03s0-.03,0-.03Z"/>
          <path class="cls-1" d="M75.74,22.47s.03.02.04.02c-.01,0-.02-.01-.04-.02Z"/>
          <path class="cls-1" d="M67.57,17.38v-.02s0,.02,0,.02Z"/>
          <polygon class="cls-1" points="66.74 16.83 66.75 16.82 66.75 16.76 66.74 16.83"/>
          <path class="cls-1" d="M78.21,19.96h0s0,.01,0,0Z"/>
          <path class="cls-1" d="M77.94,16.38c.07.1-.11.13,0,.24,0-.04.09-.18,0-.24Z"/>
          <path class="cls-1" d="M73.75,24.11l.02-.03s-.02.02-.02.03Z"/>
          <polygon class="cls-1" points="77.93 16.62 77.93 16.62 77.94 16.63 77.93 16.62"/>
          <path class="cls-1" d="M79.21,18.85s-.03-.02-.05-.02c0,0,.02.02.05.02Z"/>
          <path class="cls-1" d="M78.31,19.53h.03s-.02,0-.03,0Z"/>
          <path class="cls-1" d="M79.52,18.33s.03,0,.04-.02c0,0-.01,0-.01,0,0,.02,0,.03-.02.03Z"/>
          <polygon class="cls-1" points="80.1 17.76 80.06 17.76 80.05 17.79 80.1 17.76"/>
          <path class="cls-1" d="M69.43,17.32s-.02-.07-.03-.1c0,.08-.08.11.03.1Z"/>
          <path class="cls-1" d="M73.78,24.15s-.03-.03-.03-.04v.02s.02.02.03.02Z"/>
          <path class="cls-1" d="M78.93,17.67l.08-.06s-.06.03-.08.06Z"/>
          <path class="cls-1" d="M73.82,17.3h-.02s.02.01.02,0Z"/>
          <path class="cls-1" d="M79.08,17.53s.06.03.08.03c0,0-.01,0-.03-.01l-.05-.02Z"/>
          <path class="cls-1" d="M69.4,17.22h0s0,0,0,0Z"/>
          <path class="cls-1" d="M68.76,17.49c.09,0,.04-.14.06-.23.11-.04.05.11.09.18.07-.04.12-.17.17-.17,0,.02.01.03,0,.06.07-.12.22,0,.3-.15,0,.01,0,.03.01.04-.01-.07-.02-.15-.01-.2.04,0,.08-.09.09,0-.03,0-.03.04-.04.07l.04-.04c.04.14-.06.05-.06.15.08-.05.18-.16.25-.12.01.14-.15.05-.07.17l-.1-.05c.08.21-.06-.01,0,.21.13.04.15-.07.28-.03.03-.08,0-.11.02-.19.19-.14.15.34.29.16.04-.09.05-.26.15-.17l-.03.15c.13.01.07-.22.21-.12-.02.06-.1.05-.08.07.09.12.06-.09.13-.09v.14c.15-.02.3-.12.45-.14,0,.04-.03.08,0,.12.19-.07.41.02.59.1l.07-.12s.03.05.01.08c.07.04,0-.07.04-.12.04,0,.05.07.03.1.13-.1.36-.21.49-.09l-.03.03c.1.05.12-.24.21-.13l-.02.02c.23.05.47-.06.65.12.03-.17.22.08.24-.16.13.12.09.16.27.24.05.01.07-.15.13-.17v.12s.08-.13.08-.13l.04.15.06-.03s-.05-.06-.04-.09c.09-.06.21.09.22.15l.21-.1s-.04.07-.07.1c.11-.13.02.13.12.01-.01-.03,0-.07,0-.1.05.07.17.07.25.04l-.02.08c.15.02.32-.04.5-.04-.06-.04-.05-.19,0-.2l.02.13c.03-.08-.05-.05.01-.15.06.01.04.15,0,.19l.08-.05s-.01.06-.02.11c.03-.08.14.13.18,0v.04c.18,0,.26-.04.4-.05,0-.11.06-.09.1-.18.1.04.22.12.34.11.09-.06.03-.1.06-.16,0,.1.13.09.07.17.15-.02.19-.02.38-.1-.02-.04-.04-.06-.03-.1.03-.02.08.04.07.09h0c.21-.14.49.31.66.09h0s.17-.1.17-.1c.08.02-.05.08.01.14.19-.17.3.02.45-.09.12.3.43-.02.59.17v-.07c.03-.07.04.04.07.06,0-.06-.05-.06-.02-.1.09-.02.18-.03.27-.02.09,0,.2.02.19.05.04.04.01.11-.02.14-.03.02.44-.37.28-.2l-.19.13c.12-.08.17-.08.19-.07-.01.03-.03.05.06.06-.05,0-.12.03-.12.02-.17.05-.02.03.09.02-.02.01-.11.02-.18.03-.09,0,.16.01.02.02-.02,0-.04,0-.05,0,.06,0-.03.02.12.03-.08,0,.02.05-.07.04.1.07-.08,0,.06.11-.07-.06-.1-.08-.12-.06-.04.03-.06.1-.06.15-.02-.05-.08,0-.11-.08-.05.05-.08.12,0,.18-.25-.06-.07.31-.32.16-.09.22-.18.41-.29.57-.12-.13.14-.16,0-.29-.08.18-.04.37-.2.46-.05.02-.04-.07-.05-.11-.08.18-.26.24-.3.43-.01-.01-.01-.04-.01-.06-.02.03-.07.04,0,.09v-.04c.13.05.1.26.14.31-.13-.2-.15.07-.31-.19,0,.03,0,.07.05.11-.03.01-.06,0-.09-.07-.05.11.04.14-.03.22-.03-.03-.03-.05-.05-.09.02.09.04.18-.04.22-.01-.02-.04-.03-.03-.05-.09.12-.02.33-.19.4-.09-.15-.08,0-.2-.09l-.03.1.08.02c-.05.06-.02.18-.1.2v-.08s-.08.13-.08.13l.1-.02c0,.11.15.12.05.17,0-.03-.05.06-.15.03h0c.01.06.02.12-.04.14-.05-.02-.12-.12-.15-.13.07.11-.09.16-.03.28-.01-.03-.07-.08-.09-.09l.06.09s-.06,0-.11-.05c-.09.07.17.1.02.14,0-.01-.01-.02-.01-.05-.12.07-.11.23-.23.29-.14-.07.04-.1-.08-.15-.09.15-.09.39-.22.49h.03c.15.14-.16.01-.14.14,0-.03-.07-.1-.06-.08-.1.07-.11.21-.16.39l-.03-.05c-.08.02-.13.12-.2.16.03.05,0,.08.07.11-.38-.02-.13.44-.45.43.01-.02,0-.07-.02-.06l-.06.16c.08.05.06.02.14.03.03.05.04.11.01.15,0-.1-.12-.09-.18-.09.03.01.04.04.07.06-.18-.03.14.12-.02.15l-.04-.03c0,.05.02.12-.02.15-.1-.05-.01-.07-.08-.12-.04.06.08.23-.04.21,0-.04.02-.07.01-.11-.14-.02-.12,0-.17.03h0s-.11.06-.11.06h.04c.18.23-.06.17.02.37-.07-.19-.07-.07-.16-.15-.04,0-.1.02-.12-.01.05.1-.12.03-.04.17-.03-.02-.04.05-.11-.02-.02.08.06.03.1.06.05.17-.28.12-.22.35-.02.15.08.25.06.39-.08,0-.1-.11-.1-.11-.09.02-.11.07-.1.15-.02-.03-.05-.03-.1-.04-.02.05.1.11.01.13-.03-.03-.08-.08-.1-.13,0,.07.02.16.02.23-.07-.02-.07-.09-.09-.13-.01.08-.05.19.03.26l.06-.02s-.08-.04-.09-.07c-.04-.1.08-.05.11-.03v.05c.21.09.06-.17.13-.24l.12.12-.06-.15s.13.05.13.1c.1,0-.02-.08.09-.07.02,0,.02,0,.02.02v-.08s.1.06.06.08c.14-.04,0-.22.13-.18h0c.04-.15-.09-.07-.14-.25l.29.11-.09-.08s.04-.03.08,0c-.03-.1-.05-.02-.09-.1.14,0,.08-.2.25-.11-.06-.08-.1.02-.11-.09.18.1.03-.1.15-.1.07.08-.01.1.11.1-.12-.14.11-.09.12-.16-.12-.09.03-.14.05-.25.04.03.18-.1.27-.14l.02.02c-.11-.1-.03-.16,0-.24.07.06.09.09.1.14l.04-.05s-.04-.07-.02-.12l.08.08c.05-.07,0-.22.13-.26-.08-.07-.28-.1-.26-.24.05.03.12.09.12.12,0-.01-.01-.06.02-.06l.04.09c.06-.02-.05-.07-.01-.1.06.05.06.01.11.05,0,.01-.05,0-.03.04.04-.03.11-.04.17-.02-.04-.02-.08-.07-.07-.1.05-.07.09.04.16.02-.03-.05.05-.06-.04-.13.02-.02.06.01.09.02-.01-.07.12-.17-.01-.21h-.01s0,0,0,0h0s0,0,0,0c0-.19.24-.2.3-.34l.03.03c.02-.1.1-.17.08-.27.02-.02.09,0,.12.04.02-.07,0-.1.1-.14,0,.1.06.02,0,.08.08-.04.14-.02.12-.16.06.09.14.03.14-.02h-.09s.05-.07.09-.1l.09.1c.24-.03,0-.42.29-.34-.04-.1-.11.03-.17-.07.07-.05.27.01.28,0,.13-.03-.08-.21.04-.26-.05-.02-.15-.09-.12-.19.07-.05.22.06.21.12-.01.02-.03.01-.04,0,0,.03-.01.07.05.08l-.03-.04c.06,0,.13-.08.17-.01,0-.08-.04-.07-.09-.05.12-.03.11-.12.22-.17-.03,0-.08-.03-.07-.04.15-.08-.02-.11.04-.2.09,0,.11.13.14.01.08-.01.1.08.11.12,0-.13.17-.09.22-.12v.06s.01-.06.03-.07l-.09-.04s.05-.03.08,0c-.02-.07-.13-.09-.15-.19.06,0,.05-.13.15-.05-.12.06.1.08.04.17,0-.03.02-.04.05-.05.01,0,.02.02.02.03.17,0-.06-.14.02-.23.04.06.12.07.12.05-.04.04-.1-.06-.11-.14.1-.02.03-.09.07-.12l-.05.02c-.04-.06,0-.08.02-.14.04.04,0,.06.02.07-.05-.13.19-.01.19-.13.06,0,.1.09.15.09,0-.13.14,0,.16-.13-.09-.05-.08-.03-.09-.14l-.07.17-.02-.17s-.03.12-.07.13c-.02-.09,0-.07-.08-.11.15.05.04-.16.16-.15l.17.17c.16-.01.07-.24.22-.31h-.06c-.05-.08.06-.07.07-.13.05.06.09.06.14.08-.04-.04.09-.08-.01-.2l.12.03c.12-.06-.05-.26.06-.33.03.09.11.09.09.19.03-.03.07-.04.03-.08.05.02,0-.16.09-.13-.01-.04-.06-.1-.03-.13.01,0,.03.03.03.03-.03-.03.02-.09-.07-.12.12.06.22-.04.29-.12.08-.09.13-.16.3-.19.06-.1.12-.22.16-.3.03,0,.05,0,.03.02.17-.12-.23-.05-.05-.18.19-.09.05.05.13,0,.33-.07.04-.15.26-.29v.02c.14-.11-.04-.14.02-.28,0,0,.03,0,.05-.02-.06-.08-.32-.01-.46,0,.15-.07.11-.03.21-.11-.07,0-.17.12-.3.14.03-.04.01-.09.12-.19h.1c.11-.11-.13,0-.16-.04l.07-.05c-.18-.01-.31.13-.5.12l-.02.05c-.22.16-.02-.09-.2.03l.07-.16c-.11.04-.33.15-.44.18.08-.12.26-.18.4-.25-.08,0-.28.01-.34.09.03-.02.08-.05.11-.03-.13.12-.24.19-.35.18.02-.31-.27-.08-.34-.31-.18.11-.36-.05-.57-.03.08.24-.06,0-.05.25-.05.02-.07.01-.07,0l-.15-.15c-.04-.07.05-.05.04-.11-.11-.02-.05-.1-.12-.17.01.09-.04.13-.1.09l.09.11c-.15.13-.13-.21-.28-.08l.05-.08c-.08.05-.29,0-.36.2-.01-.03-.03-.1,0-.11-.19-.03-.41.21-.56.09v-.06s-.05.11-.09.05c0-.02.01-.06,0-.06-.02.02-.09.1-.14.07l.04-.07c-.18-.08-.28.16-.43.21,0-.18-.14-.23-.21-.26v-.02c-.21-.02-.36.15-.55.22-.12-.19-.41-.08-.61-.19.03.03,0,.14-.04.15-.05-.04-.13.12-.12-.04h.02c-.03-.16-.13-.11-.2-.12v.21c-.2-.31-.52.11-.62-.16-.05.05-.1.05-.15.11v-.11c-.13-.03-.19-.04-.35-.02l.03-.08c-.09,0-.11.33-.2.33l-.03-.17c-.16,0-.31-.15-.47,0,0-.02,0-.07.03-.08-.07,0-.28-.11-.26.12,0-.15-.16-.01-.25.05v-.11c-.06.14-.06.18-.16.22-.02-.01-.02-.09.01-.06-.08-.06-.06.11-.16.05l.04-.07c-.08,0-.07.03-.12.11-.05.04-.15-.03-.17-.13-.01.06-.06.14-.1.11,0-.04.01-.06.02-.07-.14-.08-.2.13-.29.02,0-.04,0-.06-.02-.07.11,0,.19,0,.19.02,0-.1-.09-.12-.02-.26-.07.08-.19.25-.27.2,0,0,0-.02-.01-.04h0s-.04-.01-.05,0c-.03-.02-.04-.03-.07-.03-.01-.09-.1-.05-.14-.05,0,.11-.05.09,0,.19,0,0,0-.01.04-.02,0,0,.01,0,.02-.01h0s.07,0,.11,0c-.03.06-.07.11-.12.04-.02.07-.05.15-.06.18-.06-.16-.17-.24-.19-.34-.13.06-.31.04-.39.25-.04.03-.04-.06-.06-.09.02-.02.05-.02.06-.05-.08.05-.22.02-.24.17-.09-.07.05-.14-.08-.11l.02-.05c-.26-.24-.42.38-.7.07.02.02.03.03.03.05-.32-.13-.67.13-.99-.09-.09-.04-.1.05-.16.12l-.02-.12-.09.14c-.13.1-.23-.3-.4-.1l.02.08c-.06-.02-.19.05-.18-.05,0,.01-.02.08-.04.04v-.06s-.15.11-.15.11c-.12-.05.02-.25-.15-.26-.06.02-.18.18-.16.23.03,0,.07.04.07.1l-.06.03c-.01.19-.05.38.09.51l.1-.11.03.09h-.08c.05.09.08.02.11-.04,0,.05.02.08.04.1l.1-.18c.01.07-.04.14.02.18.05-.08-.04-.16.03-.22.05.08.03.15.09.08,0,.05,0,.08-.03.1.05-.06.13-.02.16-.12.05.1.17-.03.16.15.02-.04.09-.14.13-.15-.08.21.17.01.15.24.06-.19.22-.08.33-.19,0,.02-.02.05-.03.04.06.02.08.07.12.11,0-.16.1-.19.15-.29.08.15-.05.18-.02.33,0-.13.13-.13.1-.23.06.09.05.05.08.18,0-.2.05-.03.1-.15.08.1.02.18.11.12.04.06-.04.13-.04.13ZM70.92,17.15h0s-.03,0-.04,0c0,0,.02,0,.04,0ZM71.1,17.15s-.05,0-.08,0c0-.04,0-.08.02-.08,0,.03.03.05.06.08ZM70.72,16.37s.04,0,.04.03c-.01,0-.03,0-.05.01h0s0-.03.01-.04Z"/>
          <path class="cls-1" d="M70.67,16.52s0,0-.01,0l.02.03v-.04s0,0,0,0Z"/>
          <path class="cls-1" d="M75.87,22.07h0s-.01,0-.02,0c0,0,.01,0,.01,0Z"/>
          <polygon class="cls-1" points="73.62 17.36 73.62 17.33 73.6 17.36 73.62 17.36"/>
          <path class="cls-1" d="M74.95,22.62s-.02,0-.03,0c0,0,.02,0,.03,0Z"/>
          <path class="cls-1" d="M74.67,22.95l-.07.03s.05-.02.07-.03Z"/>
          <path class="cls-1" d="M74.42,23.19s.03.02.04.03h0s-.04-.03-.04-.03Z"/>
          <path class="cls-1" d="M77.75,19.02s0,0,0-.01c0-.04,0-.02,0,.01Z"/>
          <path class="cls-1" d="M76.87,20.36s0-.05,0-.07c-.03.02-.04.03,0,.07Z"/>
          <polygon class="cls-1" points="78.92 17.67 78.92 17.67 78.93 17.67 78.92 17.67"/>
          <path class="cls-1" d="M76.91,20.23s-.05.03-.05.05c.02-.01.05-.02.05-.05Z"/>
          <path class="cls-1" d="M73.55,24.36h-.01s.01.02.01.02v-.02Z"/>
          <path class="cls-1" d="M73.55,24.38v.02s0-.01,0-.02Z"/>
          <path class="cls-1" d="M73.56,24.45v-.05s-.02.02,0,.05Z"/>
          <path class="cls-1" d="M73.84,24.02l-.03-.03s.02.02.03.03Z"/>
          <path class="cls-1" d="M73.91,23.9s-.12.02-.12.07l.02.02c-.04-.05.14-.03.1-.09Z"/>
          <path class="cls-1" d="M74.64,23.73l-.09.07s.11.02.09.07c.19-.04-.1-.03,0-.14Z"/>
          <path class="cls-1" d="M74.9,23.49c-.02.06.05.04.07.05,0-.05-.01-.07-.07-.05Z"/>
          <path class="cls-1" d="M76.43,21.52l.07.07s-.03-.03-.07-.07Z"/>
          <polygon class="cls-1" points="76.34 20.81 76.26 20.8 76.32 20.88 76.34 20.81"/>
          <polygon class="cls-1" points="77.07 21.07 77.07 21.1 77.09 21.02 77.07 21.07"/>
          <path class="cls-1" d="M80.09,17.91l-.14-.04s.12.11.14.04Z"/>
          <path class="cls-1" d="M79.81,16.55c.03-.06-.03-.1-.12-.04.06,0,.08.06.12.04Z"/>
          <polygon class="cls-1" points="74.1 16.35 74.13 16.31 74.07 16.34 74.1 16.35"/>
        </g>
      </g>
    </g>
  </g>
</svg>