<?xml version="1.0" encoding="UTF-8"?>
<svg id="_レイヤー_2" data-name="レイヤー_2" xmlns="http://www.w3.org/2000/svg" viewBox="0 0 275.25 161.15">
  <defs>
    <style>
      .cls-1 {
        fill: #f7f2e3;
      }

      .cls-2 {
        fill: #1e4682;
      }
    </style>
  </defs>
  <g id="_レイヤー_1-2" data-name="レイヤー_1">
    <g>
      <path class="cls-2" d="M162.59,40.86c-3.02,14.07-9.77,22.72-12.98,22.03s-3.36-12.65-.34-26.72,8.07-24.91,11.28-24.22,5.06,14.85,2.04,28.91Z"/>
      <path class="cls-2" d="M225.31,139.32c-.36.36-.86.58-1.44.58-1.66,0-3.82-1.51-3.82-3.46,0-.58.14-1.15.5-1.58,2.88-3.6,4.55-10.29,4.05-13.69s-3.53-12.39-16.35-12.39c-9.65,0-18.58,4.68-24.99,9.5-.5.43-1.15.65-1.94.65-2.02,0-4.75-1.3-4.75-3.24,0-.22,0-.43.07-.65,1.73-6.05,3.46-16.56,4.32-25.78h-10.08c-1.3,0-2.23-1.3-2.23-3.17s.94-3.17,2.23-3.17h10.58c.29-2.88-.58-6.05,3.6-6.05,2.02,0,3.31.94,3.31,2.23v.07c0,1.15-.07,2.45-.14,3.74h18c1.22,0,2.16,1.22,2.16,3.17s-.94,3.17-2.16,3.17h-18.58c-.79,7.34-2.09,15.12-3.1,19.66-.07.22-.07.36-.07.5,0,.36.14.58.43.58.22,0,.43-.14.79-.36,5.62-3.74,13.75-7.27,23.47-7.27,16.85,0,22.18,12.1,22.18,18.65,0,5.26-1.97,13.83-6.07,18.3Z"/>
      <g>
        <path class="cls-2" d="M76.68,97.86c-1.01,0-1.94.07-2.95.07v-10.3h10.51c1.22,0,2.23-1.22,2.23-3.1s-1.01-3.17-2.23-3.17h-10.51v-3.02c0-1.22-1.22-2.16-3.17-2.16s-3.1.94-3.1,2.16v3.02h-12.17c-1.22,0-2.16,1.22-2.16,3.17s.94,3.1,2.16,3.1h12.17v10.94c-14.91,2.3-24.34,10.44-24.34,22.75,0,9.15,5.9,16.99,15.84,16.99,10.44,0,14.76-6.98,14.76-16.06v-18.07c.65-.07,1.37-.14,2.09-.14h1.22c16.42,0,22.75,5.54,22.75,15.05,0,3.1-1.01,5.4-2.45,7.78-.22.43-.36.79-.36,1.22,0,1.94,2.66,3.53,4.18,3.53.65,0,1.15-.22,1.51-.72,2.52-3.02,3.89-6.77,3.89-11.3,0-15.34-11.09-21.75-29.88-21.75ZM67.46,121.04c0,7.42-2.38,10.8-9.29,10.8-4.54,0-9-3.67-9-10.37,0-8.86,6.12-14.76,18.29-16.63v16.2Z"/>
        <circle class="cls-2" cx="93.22" cy="95.21" r="10"/>
      </g>
      <g>
        <path class="cls-2" d="M136.93,161.15h-.07c-1.37,0-2.38-1.51-2.38-3.53,0-1.73.94-2.81,2.09-2.88,19.23-1.66,25.63-8.35,25.63-19.08,0-8.93-5.62-14.26-16.99-14.26-.86,0-1.73,0-2.59.07l-24.99,1.44c-1.3.07-2.23-1.58-2.23-3.31,0-2.02.94-3.17,2.3-3.24l24.55-1.3,3.46-.07c15.19-.29,23.26,7.78,23.26,20.67s-6.7,25.49-32.04,25.49Z"/>
        <circle class="cls-2" cx="140.35" cy="108.04" r="10"/>
      </g>
      <path class="cls-2" d="M119.06,32.94c7.69-.18,13.33-.97,13.33-4.18s-5.64-4.22-13.33-4.47v-8.05c7.69-.18,13.33-.97,13.33-4.18s-5.64-4.22-13.33-4.47V2.63c0-1.36-1.29-2.34-3.33-2.34s-3.33.98-3.33,2.34v4.88c-9.38.08-16.73.87-16.73,4.54s7.36,4.18,16.73,4.23v7.93c-9.38.08-16.73.87-16.73,4.54s7.36,4.18,16.73,4.23v8.53c-5.14-1.44-10.58-2.34-16.48-2.34-13.23,0-20.04,6.96-20.04,14.74s5.37,15.27,20.34,15.27,20.27-5.86,22.13-13.14c7.58.87,13.26.05,13.96-3.18.76-3.5-5-6.64-13.26-8.97v-10.95ZM92.48,45.46s0,0,0,0c-2.82.47-5.15,1.45-6.8,2.79,1.65-1.34,3.97-2.32,6.8-2.79ZM96.22,63.21c-2.49,0-4.57-.3-6.29-.81,1.72.52,3.8.81,6.29.81,5,0,8.5-.93,10.94-2.51-2.44,1.58-5.94,2.51-10.94,2.51Z"/>
      <path class="cls-2" d="M59.76,36.94v-20.7c6.53-.34,11.04-1.36,11.04-4.31s-4.52-4.15-11.04-4.58V2.52c0-1.22-1.3-2.23-3.17-2.23s-3.24,1.01-3.24,2.23v4.6c-.65,0-1.31,0-1.98,0-10.73,0-19.43.71-19.43,4.81s8.7,4.48,19.43,4.48c.67,0,1.33,0,1.98,0v19.17c-4.03-.86-8.28-1.37-12.53-1.37-12.53,0-18.07,7.34-18.07,14.98s6.62,14.54,17.79,14.54,17.67-5.52,18.97-15.22c7.26.51,12.65-.5,13.18-3.61.57-3.35-5-6.09-12.93-7.96ZM28.87,49.18h0c0,2.07.84,3.89,2.34,5.3-1.5-1.4-2.34-3.22-2.34-5.3Z"/>
      <path class="cls-2" d="M147.2,70.12c.68-.91,1.34-1.83,1.98-2.76.37-.57.1-1.41-.74-1.95-.9-.58-1.79-.54-2.16.03-.63.93-1.3,1.86-1.99,2.8-9.85-5.43-19.48-1.47-24.55,6.38-4.13,6.4-2.34,10.72,2.22,13.66,4.73,3.06,14.89-5.19,23.11-15.42,6.23,4.72,6.67,10.88,2.82,16.85-1.08,1.68-2.84,3.01-4.43,3.84-.21.1-.35.25-.46.42-.54.84-.09,2.27.75,2.81.34.22.7.31,1.04.15,2.33-1.11,4.62-2.95,6.07-5.2,5.08-7.87,3.88-15.95-3.66-21.62Z"/>
      <path class="cls-2" d="M210.95,31.08c-2.08-3.71-12.62,3.9-18.18,8.66-.25-3.64-.67-7.54-1.28-11.6-2.87-19-8.07-29.04-12.34-28.08s-5.99,12.55-3.11,31.55c2.12,14.05,5.76,25.4,9.24,29.98,2.52,3.87,7.34,3.39,13.5-3.38,6.4-7.02,14.61-22.79,12.17-27.13Z"/>
      <path class="cls-2" d="M273.65,18.84c-1.59-3.91-17.18-7.18-29.69-7.51-.26-6.09-1.86-7.97-3.92-8.37-2.66-.51-6.82-.76-9.6,9.51-8.28,1.75-19.92,5.16-19.92,8.29,0,2.77,10.51,5.76,17.24,7.63-2.41,16.2-5.2,31.55-2.4,32.09,3.02.58,13.53-13.23,16.93-30.25.02,0,.04,0,.06,0,4.17,0,14.64-1.1,17.95-1.78-.51,2.36-.99,5.12-1.42,8.36-2.49,18.66-1.05,34.44,3.22,35.26,4.27.81,9.74-13.65,12.23-32.3,1.55-11.63.99-17.75-.69-20.91Z"/>
      <path class="cls-2" d="M17.24,33.03c-.51,14.46-4.08,26.03-9.52,25.83C2.27,58.67-.45,46.79.06,32.33.57,17.87,4.13,6.3,9.57,6.5s8.18,12.07,7.66,26.53Z"/>
      <path class="cls-2" d="M74.84,12.1c0,3.65-8.4,5.83-21.38,5.83s-22.26-2.17-22.26-5.83,9.28-5.86,22.26-5.86,21.38,2.2,21.38,5.86Z"/>
      <circle class="cls-1" cx="92.48" cy="54.48" r="8.22"/>
      <circle class="cls-1" cx="38.26" cy="49.18" r="8.22"/>
    </g>
  </g>
</svg>