<?xml version="1.0" encoding="UTF-8"?>
<svg id="_レイヤー_2" data-name="レイヤー_2" xmlns="http://www.w3.org/2000/svg" viewBox="0 0 296.12 99.42">
  <defs>
    <style>
      .cls-1 {
        fill: #204988;
      }

      .cls-2 {
        stroke-width: 2px;
      }

      .cls-2, .cls-3 {
        stroke: #000;
        stroke-miterlimit: 10;
      }

      .cls-4 {
        fill: #231815;
      }

      .cls-5 {
        fill: #fff;
      }

      .cls-6 {
        fill: #f4aa9b;
      }

      .cls-3 {
        stroke-width: 3px;
      }
    </style>
  </defs>
  <g id="_レイヤー_1-2" data-name="レイヤー_1">
    <g>
      <path class="cls-2" d="M168.85,36.95c-.2,0-.4-.05-.6-.15-2.8-1.45-5.45-2.8-8.1-3.95-.1,6.35-3.3,12.35-15.1,12.35-9.9,0-13.45-4.95-13.45-10.1s4.5-9.75,13.25-9.75c3.9,0,7.5.6,10.9,1.55v-6.35h-1.45l-.95-.2h-10.65c-.75,0-1.35-.75-1.35-1.85s.6-1.9,1.35-1.9h13.05v-7.85h-13c-.8,0-1.4-.75-1.4-1.95s.6-1.95,1.4-1.95h13v-2.3c0-.9.85-1.55,2.2-1.55s2.2.65,2.2,1.55v2.3h6.35c.8,0,1.4.75,1.4,1.95s-.6,1.95-1.4,1.95h-6.35v7.85h6.35c.8,0,1.4.8,1.4,2s-.6,1.95-1.4,1.95h-6.35v7.75c3.4,1.25,6.6,2.75,9.85,4.2.6.25.9.85.9,1.65,0,1.45-1,2.8-2.05,2.8ZM155.75,31.1c-3.4-1.15-6.9-1.8-10.65-1.8-5.4,0-8.9,2.5-8.9,5.7s2.25,6.25,8.85,6.25c9,0,10.7-4.55,10.7-10v-.15Z"/>
      <path class="cls-3" d="M180.52,39.54c-.25.6-.9,1-1.65,1-1.15,0-2.6-.8-2.6-2.2,0-.2.05-.5.15-.7,1.95-4.1,2.4-8.25,2.4-14v-9.4c0-.9.9-1.85,2.3-1.85s2.25.95,2.25,1.85v9.3c0,7.25-.85,11.4-2.85,16Z"/>
      <path class="cls-3" d="M217.6,28.94c-4.3,8.85-12.65,13.65-22.65,13.65h-1.15c-2.25,0-3.4-1.45-3.4-3.55V4.34c0-.9.9-1.85,2.3-1.85s2.3.95,2.3,1.85v32.25c0,.7.5,1.2,1.1,1.2h.1c8.35-.5,12.9-3.9,17.15-10.75.35-.6,1-1.05,1.9-1.05,1.15,0,2.5,1,2.5,2.25,0,.25-.05.5-.15.7Z"/>
      <path class="cls-3" d="M248.92,41.94c-.25.1-.45.15-.7.15-1.2,0-2.15-1.15-2.15-2.3,0-.8.3-1.5,1-1.85,4.15-1.9,6.45-4.7,6.45-10.45v-10.3c0-.7-.5-1.25-1.2-1.25h-15.97c-.4,10.75-1.85,19.45-4.35,27.5-.2.7-.75,1.4-1.95,1.4-1.75,0-2.55-.95-2.55-1.95,0-.2.05-.35.1-.55,2.15-7,3.7-15.5,4.15-26.4h-10.5c-.9,0-1.9-.9-1.9-2.3s1-2.25,1.9-2.25h10.6V3.99c0-.8.9-1.85,2.35-1.85,1.3,0,2.25,1,2.25,1.85v7.4h17.87c2.1,0,3.75,1.65,3.75,3.75v12.5c0,8.2-3.6,12.35-9.15,14.3Z"/>
      <path class="cls-3" d="M194.58,91.27c-.23.32-.54.45-.95.45-.94,0-2.61-.99-2.61-2.21,0-.27.09-.5.23-.76.9-1.49,1.53-2.92,1.53-4.86,0-5.94-3.96-9.41-14.22-9.41h-.77c-.45,0-.9.04-1.3.09v11.29c0,5.67-2.7,10.03-9.22,10.03s-9.9-4.9-9.9-10.62c0-7.69,5.9-12.78,15.21-14.22v-6.84h-7.6c-.77,0-1.35-.76-1.35-1.93s.58-1.98,1.35-1.98h7.6v-1.89c0-.76.77-1.35,1.94-1.35s1.98.58,1.98,1.35v1.89h6.57c.76,0,1.4.76,1.4,1.98s-.63,1.93-1.4,1.93h-6.57v6.44c.63,0,1.21-.04,1.84-.04,11.74,0,18.67,4,18.67,13.59,0,2.83-.85,5.17-2.43,7.06ZM172.58,74.98c-7.6,1.17-11.43,4.86-11.43,10.39,0,4.18,2.79,6.48,5.62,6.48,4.32,0,5.8-2.11,5.8-6.75v-10.12ZM194.67,66.79c-1.17,0-1.94-.54-1.94-1.35v-6.53c0-.76.77-1.35,1.94-1.35s1.94.58,1.94,1.35v6.53c0,.81-.81,1.35-1.94,1.35Z"/>
      <path class="cls-3" d="M225.88,97.92h-.04c-.86,0-1.49-.95-1.49-2.21,0-1.08.58-1.75,1.3-1.8,12.01-1.04,16.02-5.22,16.02-11.92,0-5.58-3.51-8.91-10.62-8.91-.54,0-1.08,0-1.62.04l-15.61.9c-.81.04-1.39-.99-1.39-2.07,0-1.26.58-1.98,1.44-2.03l15.34-.81,2.16-.04c9.5-.18,14.54,4.86,14.54,12.91s-4.19,15.93-20.02,15.93ZM233.17,63.72h-16.88c-.77,0-1.35-.76-1.35-1.93s.58-1.93,1.35-1.93h16.88c.76,0,1.39.76,1.39,1.93s-.63,1.93-1.39,1.93Z"/>
      <path class="cls-3" d="M290.61,95.12c-.22.22-.54.36-.9.36-1.04,0-2.38-.94-2.38-2.16,0-.36.09-.72.31-.99,1.8-2.25,2.75-5.04,2.75-7.15s-2.21-7.74-10.21-7.74c-6.03,0-11.61,2.92-15.61,5.94-.32.27-.72.41-1.21.41-1.26,0-2.97-.81-2.97-2.02,0-.14,0-.27.04-.41,1.08-3.78,2.16-10.35,2.7-16.11h-6.3c-.81,0-1.4-.81-1.4-1.98s.58-1.98,1.4-1.98h6.61c.18-1.8-.36-3.78,2.25-3.78,1.26,0,2.07.58,2.07,1.39v.04c0,.72-.05,1.53-.09,2.34h11.25c.76,0,1.35.76,1.35,1.98s-.58,1.98-1.35,1.98h-11.61c-.5,4.59-1.31,9.45-1.94,12.28-.04.14-.04.23-.04.32,0,.22.09.36.27.36.13,0,.27-.09.5-.22,3.51-2.34,8.59-4.54,14.67-4.54,10.53,0,13.86,7.56,13.86,11.65,0,3.29-1.44,7.25-4,10.04Z"/>
      <path class="cls-3" d="M290.15,44.77c-.17.27-.48.37-.82.37-.85,0-1.84-.82-1.84-1.67,0-.17.03-.34.14-.51.75-1.33,1.39-3.09,1.39-4.79,0-6.46-3.6-10.81-11.18-10.81-8.57,0-12.88,5.98-12.88,12.99,0,5.03,2.21,8.5,5.07,8.5,3.71,0,5.92-6.36,6.19-17.27,0-.58.61-1.02,1.53-1.02.85,0,1.43.48,1.43,1.05-.38,12.92-3.57,20.43-9.21,20.43-4.62,0-8.06-5.17-8.06-11.66,0-8.36,5.58-15.98,16.08-15.98,8.94,0,14.11,5.37,14.11,13.84,0,2.28-.78,4.66-1.94,6.53Z"/>
      <rect class="cls-1" x=".52" y="55.52" width="86.44" height="7.66" rx="3.83" ry="3.83"/>
      <g>
        <path class="cls-5" d="M11.25,49.82c-1.34,0-2.54-2.51-2.14-5.23,3.49-23.78,16.65-26.46,34.63-26.46s29.96,1.55,34.63,26.46c.51,2.7-.8,5.23-2.14,5.23H11.25Z"/>
        <path class="cls-1" d="M76.23,53.82H11.25c-1.56,0-3.04-.71-4.16-2-1.63-1.88-2.37-4.88-1.94-7.81C9.2,16.44,26.43,14.13,43.74,14.13c18.69,0,33.4,2.19,38.56,29.72.54,2.86-.15,5.86-1.78,7.83-1.14,1.38-2.67,2.14-4.29,2.14ZM13.04,45.82h61.44c0-.15-.01-.32-.04-.49-4.16-22.16-13.39-23.2-30.7-23.2-18.87,0-27.78,3.33-30.67,23.04-.03.23-.04.45-.03.65Z"/>
      </g>
      <circle class="cls-4" cx="26" cy="69.31" r="2.83"/>
      <circle class="cls-4" cx="61.48" cy="69.31" r="2.83"/>
      <g>
        <circle class="cls-6" cx="11.32" cy="78.7" r="11.32"/>
        <circle class="cls-6" cx="76.16" cy="78.7" r="11.32"/>
      </g>
      <path d="M66.55,75.16c-1.15-1.23-3.11.54-1.97,1.76,1.7,1.82-1.91,3.11-3.33,3.22-2.02.17-4.19.05-6.2-.15-2.09-.21-3.93-.79-5.68-1.83-1.65-.98-3.22-2.02-5.21-2.35-.15-.02-.29-.03-.43-.02-.13-.01-.28,0-.43.02-1.99.32-3.56,1.37-5.21,2.35-1.75,1.03-3.59,1.62-5.68,1.83-2.01.2-4.18.32-6.2.15-1.42-.12-5.03-1.4-3.33-3.22,1.14-1.22-.82-2.99-1.97-1.76-1.6,1.71-1.44,4.09.32,5.68,1.95,1.76,4.81,1.88,7.41,1.82,2.75-.05,5.61-.15,8.19-1.08,2.42-.87,4.33-2.77,6.88-3.3,2.55.54,4.46,2.43,6.88,3.3,2.59.93,5.44,1.02,8.19,1.08,2.6.05,5.46-.07,7.41-1.82,1.76-1.58,1.92-3.97.32-5.68Z"/>
      <path class="cls-2" d="M85.24,37.85c-1.3,0-2.2-.65-2.2-1.45V3.05c0-.85.9-1.5,2.2-1.5,1.2,0,2.1.65,2.1,1.5v33.35c0,.8-.9,1.45-2.1,1.45ZM124.34,33.65c-.2,0-.4,0-.55-.1-1.35-.65-2.8-1.2-4.3-1.7v.75c0,8.3-4.8,13.1-13.35,13.1-7.75,0-12.35-4.6-12.35-10.1s3.85-10.4,12.55-10.4c2.95,0,5.9.35,8.7.95v-14.2h-11.35c-.85,0-1.5-.85-1.5-2.2s.65-2.2,1.5-2.2h11.35V3.2c0-.85.9-1.55,2.25-1.55s2.2.7,2.2,1.55v4.35h4.6c.85,0,1.55.85,1.55,2.2s-.7,2.2-1.55,2.2h-4.6v15.3c2.05.6,4.05,1.35,5.85,2.1.6.25.9.85.9,1.75,0,1.65-1,2.55-1.9,2.55ZM115.04,30.55c-3.1-.75-6.2-1.2-9.05-1.2-5.15,0-7.95,2.85-7.95,6.25s3.15,5.75,7.9,5.75c6,0,9.1-3.05,9.1-9.05v-1.75Z"/>
    </g>
  </g>
</svg>