<?xml version="1.0" encoding="UTF-8"?>
<svg id="_レイヤー_2" data-name="レイヤー_2" xmlns="http://www.w3.org/2000/svg" viewBox="0 0 328.65 96.59">
  <defs>
    <style>
      .cls-1 {
        fill: #204988;
      }

      .cls-2 {
        fill: #231815;
      }

      .cls-3 {
        fill: #fff;
      }

      .cls-4 {
        fill: #f4aa9b;
      }
    </style>
  </defs>
  <g id="_レイヤー_1-2" data-name="レイヤー_1">
    <g>
      <path class="cls-3" d="M182.98,31.7l-1.73-.78c-2.33-1.05-4.74-2.13-7.23-3.09v-5.21h4.85c1.44,0,2.9-1.19,2.9-3.45,0-2.03-1.22-3.5-2.9-3.5h-4.85v-4.85h4.85c1.44,0,2.9-1.19,2.9-3.45s-1.46-3.45-2.9-3.45h-4.85v-.8c0-1.52-1.27-3.05-3.7-3.05s-3.7,1.54-3.7,3.05v.8h-11.5c-1.44,0-2.9,1.19-2.9,3.45s1.46,3.45,2.9,3.45h11.5v4.85h-11.55c-1.62,0-2.85,1.46-2.85,3.4s1.22,3.35,2.85,3.35h10.5l.8.17.26.03v2.92c-3.19-.75-6.28-1.12-9.4-1.12-7.1,0-14.75,3.52-14.75,11.25,0,8.55,7.72,11.6,14.95,11.6,11.97,0,15.67-5.88,16.44-11.6,2.01.94,4.03,1.97,6.09,3.04.41.2.83.31,1.27.31,1.89,0,3.55-2.01,3.55-4.3,0-1.45-.67-2.55-1.79-3.02ZM166.6,32.76c-.19,4.7-1.99,7.56-9.18,7.56-4.67,0-7.35-1.73-7.35-4.75,0-2.43,3.11-4.2,7.4-4.2,3.07,0,6.07.46,9.13,1.39Z"/>
      <path class="cls-3" d="M199.42,10.35c-2.22,0-4.03,1.6-4.03,3.56v9.98c0,5.65-.4,9.99-2.38,14.15-.3.61-.33,1.27-.33,1.45,0,2.43,2.26,3.93,4.35,3.93,1.43,0,2.7-.8,3.22-2.03,2.3-5.29,3.15-10.06,3.15-17.61v-9.87c0-1.96-1.79-3.56-3.98-3.56Z"/>
      <path class="cls-3" d="M238.97,26.3c-1.43,0-2.7.71-3.37,1.87-4.45,7.17-8.96,10.09-16.54,10.63V3.56c0-1.96-1.81-3.56-4.03-3.56s-4.03,1.6-4.03,3.56v38.19c0,3.26,2.04,5.36,5.2,5.36h1.22c11.44,0,20.72-5.61,25.47-15.38.21-.43.32-.93.32-1.45,0-2.28-2.24-3.98-4.25-3.98Z"/>
      <path class="cls-3" d="M281.21,9.54h-16.86V3.46c0-1.84-1.81-3.45-3.86-3.45-2.37,0-3.97,1.78-3.97,3.45v6.08h-9.38c-1.69,0-3.5,1.55-3.5,3.86s1.82,3.92,3.5,3.92h9.2c-.5,9.51-1.85,17.77-4.13,25.2l-.04.16c-.06.21-.13.49-.13.86,0,1.71,1.31,3.55,4.17,3.55,1.73,0,3.03-.96,3.49-2.53,2.57-8.29,4.01-16.98,4.49-27.25h14.66v10.36c0,5.59-2.3,7.78-5.79,9.39-1.2.6-1.88,1.8-1.88,3.29,0,2.12,1.72,3.91,3.76,3.91.56,0,.99-.14,1.23-.24,6.94-2.44,10.46-7.89,10.46-16.19v-12.88c0-3.03-2.38-5.41-5.41-5.41Z"/>
      <path class="cls-3" d="M188.61,64.26v-2.64h5.05c2.14,0,3.75-1.87,3.75-4.34s-1.61-4.39-3.75-4.39h-5.05c-.06-1.8-1.57-3.58-4.39-3.58-2.43,0-4.27,1.53-4.34,3.58h-6.19c-1.84,0-3.7,1.51-3.7,4.39,0,2.48,1.59,4.34,3.7,4.34h6.19v3.5c-10.56,2.2-16.79,8.66-16.79,17.54,0,8.07,5.53,13.93,13.14,13.93s12.39-4.97,12.39-13.29v-10.36h.08c11.96,0,13.49,4.37,13.49,8.18,0,1.63-.52,2.82-1.37,4.22l-.09.16c-.24.48-.48,1.07-.48,1.83,0,2.79,3.06,4.64,5.09,4.64,1.14,0,2.13-.48,2.78-1.34,2.09-2.53,3.15-5.62,3.15-9.16,0-14.15-12.28-17.18-22.66-17.21ZM179.88,73.98v8.48c0,4.51-1.24,5.24-4.2,5.24-1.93,0-4-1.55-4-4.95,0-4.43,2.76-7.37,8.2-8.78Z"/>
      <path class="cls-3" d="M262.39,64.95c-3.19-3.13-7.97-4.71-13.83-4.62l-2.45.05-16.94.89c-1.77.09-3.68,1.52-3.68,4.44,0,1.39.53,2.73,1.41,3.56.69.65,1.55.98,2.47.93l17.3-1c.5-.04,1.04-.04,1.61-.04,9.52,0,9.52,5.74,9.52,7.63,0,4.99-1.9,9.78-15.62,10.96-2.03.13-3.51,1.89-3.51,4.19,0,2.65,1.65,4.64,3.85,4.64h.05c21.16,0,24.32-12.4,24.32-19.8,0-4.88-1.55-8.98-4.47-11.85Z"/>
      <path class="cls-3" d="M311.14,67.36c-5.72,0-10.51,1.61-14.1,3.44.42-2.35.85-5.17,1.21-8.06h10.85c2.11,0,3.7-1.89,3.7-4.39,0-2.89-1.86-4.39-3.7-4.39h-10.12c0-.14,0-.28,0-.42,0-1.86-1.54-3.75-4.49-3.75-3.63,0-4.4,2.47-4.58,4.17h-5.21c-1.86,0-3.75,1.51-3.75,4.39,0,2.5,1.61,4.39,3.75,4.39h4.51c-.64,5.65-1.67,11.54-2.63,14.88-.16.49-.16.92-.16,1.15,0,3.7,5.58,5.67,8.2,3.52,3.71-2.78,9.45-6.08,15.87-6.08,7.53,0,9.07,5,9.07,6.34,0,1.54-.67,4.17-2.52,6.49-.56.67-.86,1.54-.86,2.5,0,2.63,2.56,4.59,4.84,4.59.97,0,1.88-.37,2.55-1.04l.06-.07c3.09-3.36,5-8.17,5-12.57,0-5.83-4.75-15.08-17.51-15.08Z"/>
      <path class="cls-3" d="M326.02,29.78c-.75-3.8-3.22-7.22-7.16-9.88-4.44-3-9.22-4-13.83-2.9-4.17,1-7.91,3.67-10.52,7.54-1.94,2.87-3,6.06-2.98,8.98.02,3.16,1.27,5.75,3.54,7.27,1.31.89,2.68,1.27,4.08,1.27,6.33,0,13.15-7.98,17.08-13.46.81-1.21.38-2.82-1-3.75-1.45-.98-3.1-.82-3.9.36-6.77,9.51-11.09,11.59-12.73,10.48-.91-.61-1.05-1.78-1.01-2.66.07-1.54.77-3.37,1.97-5.14,1.8-2.66,4.24-4.48,6.89-5.13,2.89-.71,6-.02,8.97,1.98,2.69,1.82,4.27,3.91,4.68,6.22.39,2.17-.24,4.5-1.87,6.92-.69,1.02-1.88,2-3.22,2.67-.41.19-.75.48-1.01.87-.91,1.35-.43,3.53.99,4.49.46.31.95.47,1.44.47.31,0,.61-.06.9-.19h0c2.38-1.08,4.53-2.85,5.88-4.86,2.57-3.81,3.54-7.81,2.81-11.56Z"/>
      <rect class="cls-1" x=".52" y="53.04" width="86.44" height="7.66" rx="3.83" ry="3.83"/>
      <path class="cls-1" d="M76.21,49.74H11.24c-1.56,0-3.04-.71-4.16-2-1.63-1.88-2.37-4.88-1.94-7.81C9.18,12.36,26.42,10.05,43.72,10.05c18.69,0,33.4,2.19,38.56,29.72.54,2.86-.15,5.86-1.78,7.83-1.14,1.38-2.67,2.14-4.29,2.14ZM13.02,41.74h61.44c0-.15-.01-.32-.04-.49-4.16-22.16-13.39-23.2-30.7-23.2-18.87,0-27.78,3.33-30.67,23.04-.03.23-.04.45-.03.65Z"/>
      <circle class="cls-2" cx="26" cy="66.82" r="2.83"/>
      <circle class="cls-2" cx="61.48" cy="66.82" r="2.83"/>
      <circle class="cls-4" cx="11.32" cy="76.22" r="11.32"/>
      <circle class="cls-4" cx="76.16" cy="76.22" r="11.32"/>
      <path d="M66.55,72.67c-1.15-1.23-3.11.54-1.97,1.76,1.7,1.82-1.91,3.11-3.33,3.22-2.02.17-4.19.05-6.2-.15-2.09-.21-3.93-.79-5.68-1.83-1.65-.98-3.22-2.02-5.21-2.35-.15-.02-.29-.03-.43-.02-.13-.01-.28,0-.43.02-1.99.32-3.56,1.37-5.21,2.35-1.75,1.03-3.59,1.62-5.68,1.83-2.01.2-4.18.32-6.2.15-1.42-.12-5.03-1.4-3.33-3.22,1.14-1.22-.82-2.99-1.97-1.76-1.6,1.71-1.44,4.09.32,5.68,1.95,1.76,4.81,1.88,7.41,1.82,2.75-.05,5.61-.15,8.19-1.08,2.42-.87,4.33-2.77,6.88-3.3,2.55.54,4.46,2.43,6.88,3.3,2.59.93,5.44,1.02,8.19,1.08,2.6.05,5.46-.07,7.41-1.82,1.76-1.58,1.92-3.97.32-5.68Z"/>
      <path class="cls-3" d="M93.57,2.42c-2.14,0-3.7,1.26-3.7,3v30.86c0,1.68,1.59,2.95,3.7,2.95s3.6-1.3,3.6-2.95V5.42c0-1.71-1.55-3-3.6-3Z"/>
      <path class="cls-3" d="M134.25,27.85c-1.72-.72-3.37-1.33-4.93-1.83v-12.69h3.1c1.52,0,3.05-1.27,3.05-3.7,0-2.14-1.28-3.7-3.05-3.7h-3.1v-2.85c0-1.74-1.59-3.05-3.7-3.05s-3.75,1.31-3.75,3.05v2.85h-9.85c-1.49,0-3,1.27-3,3.7s1.51,3.7,3,3.7h9.85v10.88c-2.43-.42-4.85-.63-7.2-.63-9.71,0-14.05,5.98-14.05,11.9,0,7.62,6.97,11.6,13.85,11.6,8.83,0,14.28-4.92,14.81-13.24.78.3,1.49.6,2.13.91.49.28.99.28,1.26.28,1.67,0,3.4-1.51,3.4-4.05,0-2.07-1.14-2.85-1.82-3.13ZM121.87,31.63v.56c0,5.15-2.42,7.55-7.6,7.55-3.83,0-6.4-1.71-6.4-4.25,0-2.89,2.53-4.75,6.45-4.75,2.28,0,4.81.3,7.55.89Z"/>
      <circle class="cls-4" cx="245.52" cy="56.4" r="8.13"/>
      <circle class="cls-4" cx="203.49" cy="61.15" r="8.13"/>
    </g>
  </g>
</svg>