<?xml version="1.0" encoding="UTF-8"?>
<svg id="_レイヤー_2" data-name="レイヤー_2" xmlns="http://www.w3.org/2000/svg" viewBox="0 0 322.45 95.21">
  <defs>
    <style>
      .cls-1 {
        fill: #204988;
      }

      .cls-2 {
        fill: #231815;
      }

      .cls-3 {
        fill: #fff;
      }

      .cls-4 {
        fill: #f4aa9b;
      }
    </style>
  </defs>
  <g id="_レイヤー_1-2" data-name="レイヤー_1">
    <g>
      <path class="cls-3" d="M183.09,31.66l-1.73-.78c-2.33-1.05-4.74-2.13-7.23-3.09v-5.21h4.85c1.44,0,2.9-1.19,2.9-3.45,0-2.03-1.22-3.5-2.9-3.5h-4.85v-4.85h4.85c1.44,0,2.9-1.19,2.9-3.45s-1.46-3.45-2.9-3.45h-4.85v-.8c0-1.52-1.27-3.05-3.7-3.05s-3.7,1.54-3.7,3.05v.8h-11.5c-1.44,0-2.9,1.19-2.9,3.45s1.46,3.45,2.9,3.45h11.5v4.85h-11.55c-1.62,0-2.85,1.46-2.85,3.4s1.22,3.35,2.85,3.35h10.5l.8.17.26.03v2.92c-3.19-.75-6.28-1.12-9.4-1.12-7.1,0-14.75,3.52-14.75,11.25,0,8.55,7.72,11.6,14.95,11.6,11.97,0,15.67-5.88,16.44-11.6,2.01.94,4.03,1.97,6.09,3.04.41.2.83.31,1.27.31,1.89,0,3.55-2.01,3.55-4.3,0-1.45-.67-2.55-1.79-3.02ZM166.71,32.71c-.19,4.7-1.99,7.56-9.18,7.56-4.67,0-7.35-1.73-7.35-4.75,0-2.43,3.11-4.2,7.4-4.2,3.07,0,6.07.46,9.13,1.39Z"/>
      <g>
        <path class="cls-3" d="M198.8,8.47c-2.09,0-3.8,1.5-3.8,3.35v9.4c0,5.32-.38,9.41-2.24,13.33-.29.57-.31,1.19-.31,1.37,0,2.29,2.13,3.7,4.1,3.7,1.35,0,2.54-.75,3.03-1.91,2.16-4.98,2.97-9.48,2.97-16.59v-9.3c0-1.85-1.68-3.35-3.75-3.35Z"/>
        <path class="cls-3" d="M236.06,23.5c-1.35,0-2.54.67-3.17,1.76-4.19,6.76-8.44,9.5-15.58,10.02V3.35c0-1.85-1.7-3.35-3.8-3.35s-3.8,1.5-3.8,3.35v34.7c0,3.07,1.92,5.05,4.9,5.05h1.15c10.77,0,19.52-5.28,24-14.49.2-.4.3-.87.3-1.36,0-2.15-2.11-3.75-4-3.75Z"/>
      </g>
      <path class="cls-3" d="M276.91,9.25h-16.37V3.35c0-1.78-1.75-3.35-3.75-3.35-2.3,0-3.85,1.73-3.85,3.35v5.9h-9.1c-1.64,0-3.4,1.51-3.4,3.75s1.76,3.8,3.4,3.8h8.93c-.48,9.23-1.8,17.25-4.01,24.46l-.04.15c-.05.2-.13.48-.13.84,0,1.66,1.27,3.45,4.05,3.45,1.68,0,2.95-.93,3.38-2.46,2.5-8.04,3.89-16.48,4.36-26.45h14.23v10.05c0,5.42-2.23,7.55-5.62,9.11-1.16.58-1.83,1.75-1.83,3.19,0,2.06,1.67,3.8,3.65,3.8.55,0,.96-.14,1.2-.24,6.74-2.37,10.15-7.65,10.15-15.72v-12.5c0-2.94-2.31-5.25-5.25-5.25Z"/>
      <path class="cls-3" d="M194.01,65.18v-2.39h4.57c1.94,0,3.39-1.69,3.39-3.93s-1.46-3.98-3.39-3.98h-4.57c-.06-1.63-1.42-3.24-3.98-3.24-2.2,0-3.87,1.38-3.93,3.24h-5.61c-1.66,0-3.35,1.37-3.35,3.98,0,2.24,1.44,3.93,3.35,3.93h5.6v3.17c-9.56,2-15.21,7.85-15.21,15.89,0,7.31,5,12.62,11.9,12.62s11.22-4.5,11.22-12.03v-9.38h.07c10.83,0,12.22,3.96,12.22,7.41,0,1.48-.47,2.56-1.24,3.82l-.08.14c-.22.43-.44.97-.44,1.66,0,2.53,2.78,4.21,4.61,4.21,1.03,0,1.93-.43,2.52-1.22,1.89-2.3,2.86-5.09,2.86-8.3,0-12.81-11.12-15.56-20.52-15.59ZM186.1,73.98v7.68c0,4.09-1.12,4.75-3.8,4.75-1.75,0-3.62-1.4-3.62-4.48,0-4.01,2.5-6.68,7.43-7.95Z"/>
      <path class="cls-3" d="M261.42,66.55c-2.89-2.84-7.22-4.27-12.53-4.19l-2.22.05-15.34.81c-1.61.08-3.33,1.38-3.33,4.02,0,1.26.48,2.47,1.28,3.22.62.59,1.41.88,2.23.84l15.67-.9c.46-.04.94-.04,1.45-.04,8.62,0,8.62,5.2,8.62,6.91,0,4.52-1.72,8.86-14.14,9.93-1.84.12-3.18,1.71-3.18,3.8,0,2.4,1.5,4.21,3.49,4.21h.04c19.16,0,22.02-11.23,22.02-17.93,0-4.42-1.4-8.13-4.05-10.73Z"/>
      <path class="cls-3" d="M304.99,67.99c-5.18,0-9.52,1.46-12.77,3.12.38-2.13.77-4.68,1.09-7.3h9.83c1.91,0,3.35-1.71,3.35-3.98,0-2.61-1.69-3.98-3.35-3.98h-9.16c0-.13,0-.26,0-.38,0-1.69-1.4-3.39-4.07-3.39-3.29,0-3.98,2.24-4.15,3.78h-4.72c-1.69,0-3.4,1.37-3.4,3.98,0,2.27,1.46,3.98,3.4,3.98h4.08c-.58,5.12-1.52,10.45-2.38,13.48-.15.44-.15.83-.15,1.04,0,3.35,5.06,5.13,7.43,3.19,3.36-2.52,8.56-5.51,14.37-5.51,6.82,0,8.21,4.53,8.21,5.74,0,1.39-.6,3.78-2.28,5.88-.51.61-.78,1.4-.78,2.27,0,2.38,2.32,4.16,4.38,4.16.88,0,1.7-.34,2.31-.95l.06-.06c2.8-3.04,4.53-7.4,4.53-11.39,0-5.28-4.31-13.65-15.86-13.65Z"/>
      <path class="cls-3" d="M322.21,30.33c-.75-3.8-3.22-7.22-7.16-9.88-4.44-3-9.22-4-13.83-2.9-4.17,1-7.91,3.67-10.52,7.54-1.94,2.87-3,6.06-2.98,8.98.02,3.16,1.27,5.75,3.54,7.27,1.31.89,2.68,1.27,4.08,1.27,6.33,0,13.15-7.98,17.08-13.46.81-1.21.38-2.82-1-3.75-1.45-.98-3.1-.82-3.9.36-6.77,9.51-11.09,11.59-12.73,10.48-.91-.61-1.05-1.78-1.01-2.66.07-1.54.77-3.37,1.97-5.14,1.8-2.66,4.24-4.48,6.89-5.13,2.89-.71,6-.02,8.97,1.98,2.69,1.82,4.27,3.91,4.68,6.22.39,2.17-.24,4.5-1.87,6.92-.69,1.02-1.88,2-3.22,2.67-.41.19-.75.48-1.01.87-.91,1.35-.43,3.53.99,4.49.46.31.95.47,1.44.47.31,0,.61-.06.9-.19h0c2.38-1.08,4.53-2.85,5.88-4.86,2.57-3.81,3.54-7.81,2.81-11.56Z"/>
      <rect class="cls-1" x=".52" y="53.11" width="86.44" height="7.66" rx="3.83" ry="3.83"/>
      <path class="cls-1" d="M76.21,49.81H11.24c-1.56,0-3.04-.71-4.16-2-1.63-1.88-2.37-4.88-1.94-7.81C9.18,12.43,26.42,10.12,43.72,10.12c18.69,0,33.4,2.19,38.56,29.72.54,2.86-.15,5.86-1.78,7.83-1.14,1.38-2.67,2.14-4.29,2.14ZM13.02,41.81h61.44c0-.15-.01-.32-.04-.49-4.16-22.16-13.39-23.2-30.7-23.2-18.87,0-27.78,3.33-30.67,23.04-.03.23-.04.45-.03.65Z"/>
      <circle class="cls-2" cx="26" cy="66.89" r="2.83"/>
      <circle class="cls-2" cx="61.48" cy="66.89" r="2.83"/>
      <circle class="cls-4" cx="11.32" cy="76.29" r="11.32"/>
      <circle class="cls-4" cx="76.16" cy="76.29" r="11.32"/>
      <path d="M66.55,72.74c-1.15-1.23-3.11.54-1.97,1.76,1.7,1.82-1.91,3.11-3.33,3.22-2.02.17-4.19.05-6.2-.15-2.09-.21-3.93-.79-5.68-1.83-1.65-.98-3.22-2.02-5.21-2.35-.15-.02-.29-.03-.43-.02-.13-.01-.28,0-.43.02-1.99.32-3.56,1.37-5.21,2.35-1.75,1.03-3.59,1.62-5.68,1.83-2.01.2-4.18.32-6.2.15-1.42-.12-5.03-1.4-3.33-3.22,1.14-1.22-.82-2.99-1.97-1.76-1.6,1.71-1.44,4.09.32,5.68,1.95,1.76,4.81,1.88,7.41,1.82,2.75-.05,5.61-.15,8.19-1.08,2.42-.87,4.33-2.77,6.88-3.3,2.55.54,4.46,2.43,6.88,3.3,2.59.93,5.44,1.02,8.19,1.08,2.6.05,5.46-.07,7.41-1.82,1.76-1.58,1.92-3.97.32-5.68Z"/>
      <g>
        <path class="cls-3" d="M93.57,0c-2.14,0-3.7,1.26-3.7,3v33.35c0,1.68,1.59,2.95,3.7,2.95s3.6-1.3,3.6-2.95V3c0-1.71-1.55-3-3.6-3Z"/>
        <path class="cls-3" d="M134.25,27.92c-1.72-.72-3.37-1.33-4.93-1.83v-12.69h3.1c1.52,0,3.05-1.27,3.05-3.7,0-2.14-1.28-3.7-3.05-3.7h-3.1v-2.85c0-1.74-1.59-3.05-3.7-3.05s-3.75,1.31-3.75,3.05v2.85h-9.85c-1.49,0-3,1.27-3,3.7s1.51,3.7,3,3.7h9.85v10.88c-2.43-.42-4.85-.63-7.2-.63-9.71,0-14.05,5.98-14.05,11.9,0,7.62,6.97,11.6,13.85,11.6,8.83,0,14.28-4.92,14.81-13.24.78.3,1.49.6,2.13.91.49.28.99.28,1.26.28,1.67,0,3.4-1.51,3.4-4.05,0-2.07-1.14-2.85-1.82-3.13ZM121.87,31.7v.56c0,5.15-2.42,7.55-7.6,7.55-3.83,0-6.4-1.71-6.4-4.25,0-2.89,2.53-4.75,6.45-4.75,2.28,0,4.81.3,7.55.89Z"/>
      </g>
      <circle class="cls-4" cx="210.8" cy="64.63" r="8.66"/>
      <circle class="cls-4" cx="246.14" cy="58.8" r="7.36"/>
    </g>
  </g>
</svg>