<?xml version="1.0" encoding="UTF-8"?>
<svg id="_レイヤー_2" data-name="レイヤー_2" xmlns="http://www.w3.org/2000/svg" viewBox="0 0 512 368.15">
  <defs>
    <style>
      .cls-1 {
        fill: #ffdef2;
      }
    </style>
  </defs>
  <g id="_x32_">
    <g>
      <path class="cls-1" d="M385.09,261.08c-13.24,9.67-29.73,20.38-47.19,29.4,13.1,7.25,32.67,18.2,39.92,22.93,11.27,7.37,25.94,15.47,20.65-14.39-2.33-13.19-7.25-26.02-13.38-37.94Z"/>
      <path class="cls-1" d="M486,71.55c-12.96,6.48-32.07,17.87-45.18,23.44-10.54-19.57-34.46-28.74-64.06-25.04-25.58,3.19-42.37,19.89-57.56,30.38-13.59,9.38-48.49,37.3-79.4,49.02-34.08,15.21-65.01,12.78-86.33,7.46-11.14-2.79-59.69-23.46-24.51-92.73,17.29-34.06,15.05-56.39,8.52-61.28-8.52-6.39-37.3,14.39-54.88,28.78C65,20.39,18.64-1.99,8.51.14c-12.52,2.62-12.72,39.15,9.6,63.94,19.18,21.32,35.87,35.89,37.3,52.23,5.33,60.75,19.15,96.42,50.09,131.1,21.59,24.18,48.5,38.99,76.65,46.96,1.72-6.68,3.29-12.9,4.5-17.71,1.51-6.03,2.44-9.89,2.44-9.9l8.73,2.13c-5.58,21.49-17.21,65.51-21.31,75.5-5.46,13.35-11.08,30.54,18,20.99,49.15-16.13,88.18-59.47,104.14-111.36l6.92,1.09c-2.15,13.32-7.83,27.32-16.02,41.02,13.71-3.18,26.15-7.47,36.58-12.48,30.09-14.44,58.62-35.17,73.54-47.97,65.02-56.49,86.34-101.25,105.52-131.09,19.19-29.85-6.98-39.15-19.18-33.04Z"/>
    </g>
  </g>
</svg>